<svg id="visual" viewBox="0 0 960 540" width="960" height="540" xmlns="http://www.w3.org/2000/svg" xmlns:xlink="http://www.w3.org/1999/xlink" version="1.1"><rect x="0" y="0" width="960" height="540" fill="#001220"></rect><defs><linearGradient id="grad1_0" x1="43.8%" y1="100%" x2="100%" y2="0%"><stop offset="14.444444444444446%" stop-color="#fbae3c" stop-opacity="1"></stop><stop offset="85.55555555555554%" stop-color="#fbae3c" stop-opacity="1"></stop></linearGradient></defs><defs><linearGradient id="grad1_1" x1="43.8%" y1="100%" x2="100%" y2="0%"><stop offset="14.444444444444446%" stop-color="#fbae3c" stop-opacity="1"></stop><stop offset="85.55555555555554%" stop-color="#96446e" stop-opacity="1"></stop></linearGradient></defs><defs><linearGradient id="grad1_2" x1="43.8%" y1="100%" x2="100%" y2="0%"><stop offset="14.444444444444446%" stop-color="#001220" stop-opacity="1"></stop><stop offset="85.55555555555554%" stop-color="#96446e" stop-opacity="1"></stop></linearGradient></defs><defs><linearGradient id="grad2_0" x1="0%" y1="100%" x2="56.3%" y2="0%"><stop offset="14.444444444444446%" stop-color="#fbae3c" stop-opacity="1"></stop><stop offset="85.55555555555554%" stop-color="#fbae3c" stop-opacity="1"></stop></linearGradient></defs><defs><linearGradient id="grad2_1" x1="0%" y1="100%" x2="56.3%" y2="0%"><stop offset="14.444444444444446%" stop-color="#96446e" stop-opacity="1"></stop><stop offset="85.55555555555554%" stop-color="#fbae3c" stop-opacity="1"></stop></linearGradient></defs><defs><linearGradient id="grad2_2" x1="0%" y1="100%" x2="56.3%" y2="0%"><stop offset="14.444444444444446%" stop-color="#96446e" stop-opacity="1"></stop><stop offset="85.55555555555554%" stop-color="#001220" stop-opacity="1"></stop></linearGradient></defs><g transform="translate(960, 540)"><path d="M-297 0C-280.1 -35.8 -263.3 -71.6 -244.8 -101.4C-226.4 -131.2 -206.4 -155.1 -186 -186C-165.6 -216.8 -144.7 -254.7 -113.7 -274.4C-82.6 -294.1 -41.3 -295.5 0 -297L0 0Z" fill="#3d3056"></path><path d="M-198 0C-186.8 -23.9 -175.5 -47.7 -163.2 -67.6C-150.9 -87.5 -137.6 -103.4 -124 -124C-110.4 -144.6 -96.5 -169.8 -75.8 -182.9C-55.1 -196 -27.5 -197 0 -198L0 0Z" fill="#e1685e"></path><path d="M-99 0C-93.4 -11.9 -87.8 -23.9 -81.6 -33.8C-75.5 -43.7 -68.8 -51.7 -62 -62C-55.2 -72.3 -48.2 -84.9 -37.9 -91.5C-27.5 -98 -13.8 -98.5 0 -99L0 0Z" fill="#fbae3c"></path></g><g transform="translate(0, 0)"><path d="M297 0C265.7 31.2 234.5 62.5 213.4 88.4C192.4 114.3 181.6 134.9 169 169C156.4 203.1 142.1 250.8 113.7 274.4C85.2 298 42.6 297.5 0 297L0 0Z" fill="#3d3056"></path><path d="M198 0C177.2 20.8 156.3 41.7 142.3 58.9C128.2 76.2 121 89.9 112.7 112.7C104.3 135.4 94.7 167.2 75.8 182.9C56.8 198.7 28.4 198.3 0 198L0 0Z" fill="#e1685e"></path><path d="M99 0C88.6 10.4 78.2 20.8 71.1 29.5C64.1 38.1 60.5 45 56.3 56.3C52.1 67.7 47.4 83.6 37.9 91.5C28.4 99.3 14.2 99.2 0 99L0 0Z" fill="#fbae3c"></path></g></svg>