<svg id="visual" viewBox="0 0 960 540" width="960" height="540" xmlns="http://www.w3.org/2000/svg" xmlns:xlink="http://www.w3.org/1999/xlink" version="1.1"><rect x="0" y="0" width="960" height="540" fill="#001220"></rect><defs><linearGradient id="grad1_0" x1="43.8%" y1="0%" x2="100%" y2="100%"><stop offset="14.444444444444446%" stop-color="#fbae3c" stop-opacity="1"></stop><stop offset="85.55555555555554%" stop-color="#fbae3c" stop-opacity="1"></stop></linearGradient></defs><defs><linearGradient id="grad1_1" x1="43.8%" y1="0%" x2="100%" y2="100%"><stop offset="14.444444444444446%" stop-color="#fbae3c" stop-opacity="1"></stop><stop offset="85.55555555555554%" stop-color="#e1685e" stop-opacity="1"></stop></linearGradient></defs><defs><linearGradient id="grad1_2" x1="43.8%" y1="0%" x2="100%" y2="100%"><stop offset="14.444444444444446%" stop-color="#96446e" stop-opacity="1"></stop><stop offset="85.55555555555554%" stop-color="#e1685e" stop-opacity="1"></stop></linearGradient></defs><defs><linearGradient id="grad1_3" x1="43.8%" y1="0%" x2="100%" y2="100%"><stop offset="14.444444444444446%" stop-color="#96446e" stop-opacity="1"></stop><stop offset="85.55555555555554%" stop-color="#3d3056" stop-opacity="1"></stop></linearGradient></defs><defs><linearGradient id="grad1_4" x1="43.8%" y1="0%" x2="100%" y2="100%"><stop offset="14.444444444444446%" stop-color="#001220" stop-opacity="1"></stop><stop offset="85.55555555555554%" stop-color="#3d3056" stop-opacity="1"></stop></linearGradient></defs><defs><linearGradient id="grad2_0" x1="0%" y1="0%" x2="56.3%" y2="100%"><stop offset="14.444444444444446%" stop-color="#fbae3c" stop-opacity="1"></stop><stop offset="85.55555555555554%" stop-color="#fbae3c" stop-opacity="1"></stop></linearGradient></defs><defs><linearGradient id="grad2_1" x1="0%" y1="0%" x2="56.3%" y2="100%"><stop offset="14.444444444444446%" stop-color="#e1685e" stop-opacity="1"></stop><stop offset="85.55555555555554%" stop-color="#fbae3c" stop-opacity="1"></stop></linearGradient></defs><defs><linearGradient id="grad2_2" x1="0%" y1="0%" x2="56.3%" y2="100%"><stop offset="14.444444444444446%" stop-color="#e1685e" stop-opacity="1"></stop><stop offset="85.55555555555554%" stop-color="#96446e" stop-opacity="1"></stop></linearGradient></defs><defs><linearGradient id="grad2_3" x1="0%" y1="0%" x2="56.3%" y2="100%"><stop offset="14.444444444444446%" stop-color="#3d3056" stop-opacity="1"></stop><stop offset="85.55555555555554%" stop-color="#96446e" stop-opacity="1"></stop></linearGradient></defs><defs><linearGradient id="grad2_4" x1="0%" y1="0%" x2="56.3%" y2="100%"><stop offset="14.444444444444446%" stop-color="#3d3056" stop-opacity="1"></stop><stop offset="85.55555555555554%" stop-color="#001220" stop-opacity="1"></stop></linearGradient></defs><g transform="translate(960, 0)"><path d="M0 432C-19 438.7 -38 445.4 -52.1 428.9C-66.1 412.3 -75.2 372.6 -88.5 359.2C-101.9 345.9 -119.3 359.1 -138.3 364.7C-157.2 370.2 -177.7 368.2 -181.2 345.3C-184.8 322.4 -171.6 278.5 -190.9 276.5C-210.1 274.5 -261.9 314.3 -269.2 303.9C-276.5 293.5 -239.3 232.9 -232 205.6C-224.8 178.3 -247.6 184.3 -260.9 180.1C-274.2 175.9 -278.1 161.4 -278.9 146.4C-279.8 131.4 -277.6 115.8 -266.5 101.1C-255.4 86.3 -235.4 72.5 -269 66.3C-302.5 60.1 -389.8 61.5 -425.9 51.7C-462 41.9 -447 21 -432 0L0 0Z" fill="#18223c"></path><path d="M0 345.6C-15.2 351 -30.4 356.3 -41.7 343.1C-52.9 329.9 -60.2 298 -70.8 287.4C-81.5 276.8 -95.5 287.3 -110.6 291.7C-125.8 296.2 -142.1 294.6 -145 276.3C-147.9 257.9 -137.3 222.8 -152.7 221.2C-168.1 219.6 -209.6 251.4 -215.4 243.1C-221.2 234.8 -191.4 186.3 -185.6 164.5C-179.8 142.6 -198.1 147.4 -208.7 144.1C-219.4 140.7 -222.5 129.1 -223.1 117.1C-223.8 105.1 -222.1 92.6 -213.2 80.8C-204.3 69.1 -188.3 58 -215.2 53C-242 48.1 -311.8 49.2 -340.7 41.4C-369.6 33.5 -357.6 16.8 -345.6 0L0 0Z" fill="#683a67"></path><path d="M0 259.2C-11.4 263.2 -22.8 267.2 -31.2 257.3C-39.7 247.4 -45.1 223.5 -53.1 215.5C-61.1 207.6 -71.6 215.4 -83 218.8C-94.3 222.1 -106.6 220.9 -108.7 207.2C-110.9 193.4 -103 167.1 -114.5 165.9C-126.1 164.7 -157.2 188.6 -161.5 182.3C-165.9 176.1 -143.6 139.7 -139.2 123.3C-134.9 107 -148.5 110.6 -156.5 108C-164.5 105.5 -166.8 96.8 -167.4 87.8C-167.9 78.8 -166.5 69.5 -159.9 60.6C-153.2 51.8 -141.2 43.5 -161.4 39.8C-181.5 36 -233.9 36.9 -255.5 31C-277.2 25.2 -268.2 12.6 -259.2 0L0 0Z" fill="#c0526a"></path><path d="M0 172.8C-7.6 175.5 -15.2 178.2 -20.8 171.5C-26.5 164.9 -30.1 149 -35.4 143.7C-40.7 138.4 -47.7 143.6 -55.3 145.9C-62.9 148.1 -71.1 147.3 -72.5 138.1C-73.9 129 -68.6 111.4 -76.3 110.6C-84.1 109.8 -104.8 125.7 -107.7 121.6C-110.6 117.4 -95.7 93.1 -92.8 82.2C-89.9 71.3 -99 73.7 -104.4 72C-109.7 70.3 -111.2 64.6 -111.6 58.6C-111.9 52.5 -111 46.3 -106.6 40.4C-102.2 34.5 -94.1 29 -107.6 26.5C-121 24 -155.9 24.6 -170.3 20.7C-184.8 16.8 -178.8 8.4 -172.8 0L0 0Z" fill="#f6884d"></path><path d="M0 86.4C-3.8 87.7 -7.6 89.1 -10.4 85.8C-13.2 82.5 -15 74.5 -17.7 71.8C-20.4 69.2 -23.9 71.8 -27.7 72.9C-31.4 74 -35.5 73.6 -36.2 69.1C-37 64.5 -34.3 55.7 -38.2 55.3C-42 54.9 -52.4 62.9 -53.8 60.8C-55.3 58.7 -47.9 46.6 -46.4 41.1C-45 35.7 -49.5 36.9 -52.2 36C-54.8 35.2 -55.6 32.3 -55.8 29.3C-56 26.3 -55.5 23.2 -53.3 20.2C-51.1 17.3 -47.1 14.5 -53.8 13.3C-60.5 12 -78 12.3 -85.2 10.3C-92.4 8.4 -89.4 4.2 -86.4 0L0 0Z" fill="#fbae3c"></path></g><g transform="translate(0, 540)"><path d="M0 -432C11.8 -373.4 23.6 -314.7 36 -296.8C48.5 -278.9 61.5 -301.7 77.3 -313.6C93.1 -325.5 111.7 -326.4 115.6 -304.8C119.5 -283.2 108.6 -239 132.4 -252.4C156.3 -265.7 215 -336.6 245.4 -355.5C275.8 -374.5 278.1 -341.4 278.5 -314.4C279 -287.3 277.7 -266.3 282.9 -250.7C288.2 -235.1 300.1 -224.9 307 -211.9C313.9 -198.9 315.8 -183 318.8 -167.3C321.7 -151.6 325.8 -136.1 312.3 -118.4C298.8 -100.8 267.8 -80.9 286.4 -70.6C305.1 -60.3 373.5 -59.5 406 -49.3C438.6 -39.1 435.3 -19.6 432 0L0 0Z" fill="#18223c"></path><path d="M0 -345.6C9.4 -298.7 18.9 -251.8 28.8 -237.5C38.8 -223.1 49.2 -241.4 61.8 -250.9C74.5 -260.4 89.4 -261.2 92.5 -243.9C95.6 -226.6 86.9 -191.2 106 -201.9C125.1 -212.6 172 -269.3 196.3 -284.4C220.7 -299.6 222.4 -273.1 222.8 -251.5C223.2 -229.9 222.1 -213 226.3 -200.5C230.6 -188 240.1 -179.9 245.6 -169.5C251.1 -159.1 252.6 -146.4 255 -133.8C257.4 -121.3 260.6 -108.9 249.8 -94.8C239 -80.6 214.2 -64.7 229.1 -56.5C244.1 -48.2 298.8 -47.6 324.8 -39.4C350.9 -31.3 348.2 -15.6 345.6 0L0 0Z" fill="#683a67"></path><path d="M0 -259.2C7.1 -224 14.2 -188.8 21.6 -178.1C29.1 -167.3 36.9 -181 46.4 -188.2C55.9 -195.3 67 -195.9 69.4 -182.9C71.7 -169.9 65.1 -143.4 79.5 -151.4C93.8 -159.4 129 -202 147.2 -213.3C165.5 -224.7 166.8 -204.9 167.1 -188.6C167.4 -172.4 166.6 -159.8 169.8 -150.4C172.9 -141 180 -134.9 184.2 -127.1C188.3 -119.3 189.5 -109.8 191.3 -100.4C193 -91 195.5 -81.7 187.4 -71.1C179.3 -60.5 160.7 -48.6 171.9 -42.4C183.1 -36.2 224.1 -35.7 243.6 -29.6C263.1 -23.5 261.2 -11.7 259.2 0L0 0Z" fill="#c0526a"></path><path d="M0 -172.8C4.7 -149.3 9.4 -125.9 14.4 -118.7C19.4 -111.6 24.6 -120.7 30.9 -125.4C37.2 -130.2 44.7 -130.6 46.2 -121.9C47.8 -113.3 43.4 -95.6 53 -100.9C62.5 -106.3 86 -134.6 98.2 -142.2C110.3 -149.8 111.2 -136.6 111.4 -125.7C111.6 -114.9 111.1 -106.5 113.2 -100.3C115.3 -94 120 -90 122.8 -84.8C125.5 -79.5 126.3 -73.2 127.5 -66.9C128.7 -60.6 130.3 -54.4 124.9 -47.4C119.5 -40.3 107.1 -32.4 114.6 -28.2C122 -24.1 149.4 -23.8 162.4 -19.7C175.4 -15.6 174.1 -7.8 172.8 0L0 0Z" fill="#f6884d"></path><path d="M0 -86.4C2.4 -74.7 4.7 -62.9 7.2 -59.4C9.7 -55.8 12.3 -60.3 15.5 -62.7C18.6 -65.1 22.3 -65.3 23.1 -61C23.9 -56.6 21.7 -47.8 26.5 -50.5C31.3 -53.1 43 -67.3 49.1 -71.1C55.2 -74.9 55.6 -68.3 55.7 -62.9C55.8 -57.5 55.5 -53.3 56.6 -50.1C57.6 -47 60 -45 61.4 -42.4C62.8 -39.8 63.2 -36.6 63.8 -33.5C64.3 -30.3 65.2 -27.2 62.5 -23.7C59.8 -20.2 53.6 -16.2 57.3 -14.1C61 -12.1 74.7 -11.9 81.2 -9.9C87.7 -7.8 87.1 -3.9 86.4 0L0 0Z" fill="#fbae3c"></path></g></svg>