<svg id="visual" viewBox="0 0 960 540" width="960" height="540" xmlns="http://www.w3.org/2000/svg" xmlns:xlink="http://www.w3.org/1999/xlink" version="1.1"><rect width="960" height="540" fill="#180043"></rect><g><g transform="translate(280 222)"><path d="M76.5 -88.7C98.4 -72.7 115.1 -48 113.7 -24.7C112.2 -1.4 92.8 20.5 73.8 32.7C54.9 44.8 36.5 47.3 22 46.6C7.5 45.8 -3.1 41.8 -22.3 42.8C-41.6 43.9 -69.4 50 -81.2 41.2C-93 32.5 -88.7 8.8 -81.9 -11.8C-75.1 -32.3 -65.8 -49.8 -51.7 -67.2C-37.6 -84.6 -18.8 -101.9 4.2 -106.9C27.3 -112 54.5 -104.7 76.5 -88.7Z" fill="#5649d8"></path></g><g transform="translate(957 474)"><path d="M24.1 -31.7C32.8 -21.4 42.6 -15.3 46.4 -6.3C50.2 2.7 48.1 14.6 42 23.2C35.8 31.7 25.5 36.8 15.8 37.8C6.2 38.9 -2.9 35.9 -9.3 31.1C-15.7 26.4 -19.5 19.9 -23.7 13.3C-28 6.8 -32.7 0.1 -35.6 -10.3C-38.6 -20.6 -39.7 -34.6 -33.5 -45.4C-27.2 -56.1 -13.6 -63.5 -3 -60C7.7 -56.5 15.4 -42 24.1 -31.7Z" fill="#5649d8"></path></g><g transform="translate(14 80)"><path d="M12.8 -17.7C17 -11.7 21.1 -8.1 25.7 -1.6C30.3 4.9 35.5 14.2 34.7 24.4C34 34.5 27.3 45.6 17.6 49.8C7.8 54 -4.9 51.3 -12.4 44.2C-19.9 37.1 -22.1 25.6 -26 16.2C-29.9 6.9 -35.5 -0.2 -36 -7.8C-36.4 -15.5 -31.5 -23.7 -24.7 -29.2C-17.8 -34.7 -8.9 -37.6 -2.3 -34.8C4.3 -32 8.6 -23.7 12.8 -17.7Z" fill="#5649d8"></path></g><g transform="translate(777 174)"><path d="M44.3 -43.1C60.7 -39 79.7 -28.2 86 -12.3C92.2 3.7 85.8 24.7 73.7 39.8C61.7 54.8 44.1 63.8 27.5 65.5C10.9 67.3 -4.8 61.7 -19.1 55.3C-33.4 48.9 -46.4 41.6 -57.1 29.8C-67.8 17.9 -76.1 1.5 -73.5 -12.9C-70.8 -27.2 -57.2 -39.6 -43.1 -44.1C-29.1 -48.7 -14.5 -45.4 -0.3 -45.1C13.9 -44.7 27.9 -47.3 44.3 -43.1Z" fill="#5649d8"></path></g><g transform="translate(330 531)"><path d="M28.3 -30.8C36.7 -26.7 43.6 -17.8 42.3 -9.7C41 -1.6 31.6 5.6 28.5 21.5C25.3 37.3 28.4 61.8 19.6 73.5C10.9 85.1 -9.6 83.9 -26.6 76.3C-43.5 68.6 -57 54.7 -58.8 39.7C-60.6 24.7 -50.7 8.8 -43.1 -3C-35.6 -14.8 -30.3 -22.4 -23.5 -26.7C-16.7 -31 -8.4 -32.1 0.8 -33.1C10 -34 19.9 -34.8 28.3 -30.8Z" fill="#5649d8"></path></g></g></svg>