<svg id="visual" viewBox="0 0 960 540" width="960" height="540" xmlns="http://www.w3.org/2000/svg" xmlns:xlink="http://www.w3.org/1999/xlink" version="1.1"><rect x="0" y="0" width="960" height="540" fill="#001220"></rect><defs><linearGradient id="grad1_0" x1="43.8%" y1="0%" x2="100%" y2="100%"><stop offset="14.444444444444446%" stop-color="#fbae3c" stop-opacity="1"></stop><stop offset="85.55555555555554%" stop-color="#fbae3c" stop-opacity="1"></stop></linearGradient></defs><defs><linearGradient id="grad1_1" x1="43.8%" y1="0%" x2="100%" y2="100%"><stop offset="14.444444444444446%" stop-color="#fbae3c" stop-opacity="1"></stop><stop offset="85.55555555555554%" stop-color="#96446e" stop-opacity="1"></stop></linearGradient></defs><defs><linearGradient id="grad1_2" x1="43.8%" y1="0%" x2="100%" y2="100%"><stop offset="14.444444444444446%" stop-color="#001220" stop-opacity="1"></stop><stop offset="85.55555555555554%" stop-color="#96446e" stop-opacity="1"></stop></linearGradient></defs><defs><linearGradient id="grad2_0" x1="0%" y1="0%" x2="56.3%" y2="100%"><stop offset="14.444444444444446%" stop-color="#fbae3c" stop-opacity="1"></stop><stop offset="85.55555555555554%" stop-color="#fbae3c" stop-opacity="1"></stop></linearGradient></defs><defs><linearGradient id="grad2_1" x1="0%" y1="0%" x2="56.3%" y2="100%"><stop offset="14.444444444444446%" stop-color="#96446e" stop-opacity="1"></stop><stop offset="85.55555555555554%" stop-color="#fbae3c" stop-opacity="1"></stop></linearGradient></defs><defs><linearGradient id="grad2_2" x1="0%" y1="0%" x2="56.3%" y2="100%"><stop offset="14.444444444444446%" stop-color="#96446e" stop-opacity="1"></stop><stop offset="85.55555555555554%" stop-color="#001220" stop-opacity="1"></stop></linearGradient></defs><g transform="translate(960, 0)"><path d="M0 297C-35.8 280.1 -71.6 263.3 -101.4 244.8C-131.2 226.4 -155.1 206.4 -186 186C-216.8 165.6 -254.7 144.7 -274.4 113.7C-294.1 82.6 -295.5 41.3 -297 0L0 0Z" fill="#3d3056"></path><path d="M0 198C-23.9 186.8 -47.7 175.5 -67.6 163.2C-87.5 150.9 -103.4 137.6 -124 124C-144.6 110.4 -169.8 96.5 -182.9 75.8C-196 55.1 -197 27.5 -198 0L0 0Z" fill="#e1685e"></path><path d="M0 99C-11.9 93.4 -23.9 87.8 -33.8 81.6C-43.7 75.5 -51.7 68.8 -62 62C-72.3 55.2 -84.9 48.2 -91.5 37.9C-98 27.5 -98.5 13.8 -99 0L0 0Z" fill="#fbae3c"></path></g><g transform="translate(0, 540)"><path d="M0 -297C31.2 -265.7 62.5 -234.5 88.4 -213.4C114.3 -192.4 134.9 -181.6 169 -169C203.1 -156.4 250.8 -142.1 274.4 -113.7C298 -85.2 297.5 -42.6 297 0L0 0Z" fill="#3d3056"></path><path d="M0 -198C20.8 -177.2 41.7 -156.3 58.9 -142.3C76.2 -128.2 89.9 -121 112.7 -112.7C135.4 -104.3 167.2 -94.7 182.9 -75.8C198.7 -56.8 198.3 -28.4 198 0L0 0Z" fill="#e1685e"></path><path d="M0 -99C10.4 -88.6 20.8 -78.2 29.5 -71.1C38.1 -64.1 45 -60.5 56.3 -56.3C67.7 -52.1 83.6 -47.4 91.5 -37.9C99.3 -28.4 99.2 -14.2 99 0L0 0Z" fill="#fbae3c"></path></g></svg>