<svg id="visual" viewBox="0 0 960 540" width="960" height="540" xmlns="http://www.w3.org/2000/svg" xmlns:xlink="http://www.w3.org/1999/xlink" version="1.1"><rect x="0" y="0" width="960" height="540" fill="#931C1C"></rect><path d="M0 412L74 398L148 429L222 406L295 467L369 399L443 388L517 426L591 416L665 438L738 429L812 427L886 468L960 430L960 541L886 541L812 541L738 541L665 541L591 541L517 541L443 541L369 541L295 541L222 541L148 541L74 541L0 541Z" fill="#f5730a"></path><path d="M0 423L74 423L148 404L222 397L295 420L369 415L443 403L517 434L591 436L665 427L738 437L812 464L886 452L960 438L960 541L886 541L812 541L738 541L665 541L591 541L517 541L443 541L369 541L295 541L222 541L148 541L74 541L0 541Z" fill="#e7670a"></path><path d="M0 459L74 478L148 410L222 445L295 452L369 469L443 462L517 417L591 467L665 424L738 443L812 470L886 462L960 479L960 541L886 541L812 541L738 541L665 541L591 541L517 541L443 541L369 541L295 541L222 541L148 541L74 541L0 541Z" fill="#da5b09"></path><path d="M0 481L74 489L148 486L222 458L295 463L369 431L443 490L517 473L591 491L665 496L738 470L812 473L886 497L960 461L960 541L886 541L812 541L738 541L665 541L591 541L517 541L443 541L369 541L295 541L222 541L148 541L74 541L0 541Z" fill="#cc4f08"></path><path d="M0 464L74 474L148 506L222 457L295 465L369 455L443 495L517 456L591 467L665 460L738 444L812 499L886 470L960 504L960 541L886 541L812 541L738 541L665 541L591 541L517 541L443 541L369 541L295 541L222 541L148 541L74 541L0 541Z" fill="#be4407"></path><path d="M0 477L74 504L148 511L222 470L295 505L369 509L443 474L517 466L591 492L665 508L738 485L812 479L886 461L960 514L960 541L886 541L812 541L738 541L665 541L591 541L517 541L443 541L369 541L295 541L222 541L148 541L74 541L0 541Z" fill="#b03806"></path><path d="M0 495L74 477L148 501L222 504L295 521L369 518L443 501L517 517L591 512L665 521L738 513L812 500L886 514L960 511L960 541L886 541L812 541L738 541L665 541L591 541L517 541L443 541L369 541L295 541L222 541L148 541L74 541L0 541Z" fill="#a32d04"></path><path d="M0 516L74 506L148 510L222 499L295 517L369 517L443 528L517 498L591 523L665 496L738 515L812 505L886 514L960 518L960 541L886 541L812 541L738 541L665 541L591 541L517 541L443 541L369 541L295 541L222 541L148 541L74 541L0 541Z" fill="#952103"></path><path d="M0 507L74 510L148 518L222 525L295 528L369 515L443 510L517 511L591 528L665 532L738 520L812 531L886 509L960 527L960 541L886 541L812 541L738 541L665 541L591 541L517 541L443 541L369 541L295 541L222 541L148 541L74 541L0 541Z" fill="#871400"></path></svg>