<svg id="visual" viewBox="0 0 960 540" width="960" height="540" xmlns="http://www.w3.org/2000/svg" xmlns:xlink="http://www.w3.org/1999/xlink" version="1.1"><rect x="0" y="0" width="960" height="540" fill="#001220"></rect><path d="M0 221L13.3 223.5C26.7 226 53.3 231 80 236.5C106.7 242 133.3 248 160 233.5C186.7 219 213.3 184 240 167C266.7 150 293.3 151 320 173.7C346.7 196.3 373.3 240.7 400 232C426.7 223.3 453.3 161.7 480 159C506.7 156.3 533.3 212.7 560 220.5C586.7 228.3 613.3 187.7 640 182.2C666.7 176.7 693.3 206.3 720 201.2C746.7 196 773.3 156 800 153.8C826.7 151.7 853.3 187.3 880 214.3C906.7 241.3 933.3 259.7 946.7 268.8L960 278L960 0L946.7 0C933.3 0 906.7 0 880 0C853.3 0 826.7 0 800 0C773.3 0 746.7 0 720 0C693.3 0 666.7 0 640 0C613.3 0 586.7 0 560 0C533.3 0 506.7 0 480 0C453.3 0 426.7 0 400 0C373.3 0 346.7 0 320 0C293.3 0 266.7 0 240 0C213.3 0 186.7 0 160 0C133.3 0 106.7 0 80 0C53.3 0 26.7 0 13.3 0L0 0Z" fill="#fa7268"></path><path d="M0 96L13.3 113.3C26.7 130.7 53.3 165.3 80 181.7C106.7 198 133.3 196 160 185.5C186.7 175 213.3 156 240 154C266.7 152 293.3 167 320 183.7C346.7 200.3 373.3 218.7 400 231.5C426.7 244.3 453.3 251.7 480 227.8C506.7 204 533.3 149 560 134.7C586.7 120.3 613.3 146.7 640 160.7C666.7 174.7 693.3 176.3 720 176.7C746.7 177 773.3 176 800 185.7C826.7 195.3 853.3 215.7 880 226.5C906.7 237.3 933.3 238.7 946.7 239.3L960 240L960 0L946.7 0C933.3 0 906.7 0 880 0C853.3 0 826.7 0 800 0C773.3 0 746.7 0 720 0C693.3 0 666.7 0 640 0C613.3 0 586.7 0 560 0C533.3 0 506.7 0 480 0C453.3 0 426.7 0 400 0C373.3 0 346.7 0 320 0C293.3 0 266.7 0 240 0C213.3 0 186.7 0 160 0C133.3 0 106.7 0 80 0C53.3 0 26.7 0 13.3 0L0 0Z" fill="#f66a67"></path><path d="M0 159L13.3 173.8C26.7 188.7 53.3 218.3 80 206.3C106.7 194.3 133.3 140.7 160 137.8C186.7 135 213.3 183 240 186.8C266.7 190.7 293.3 150.3 320 129.2C346.7 108 373.3 106 400 112.5C426.7 119 453.3 134 480 145.3C506.7 156.7 533.3 164.3 560 162.7C586.7 161 613.3 150 640 155C666.7 160 693.3 181 720 176.3C746.7 171.7 773.3 141.3 800 136.8C826.7 132.3 853.3 153.7 880 175.8C906.7 198 933.3 221 946.7 232.5L960 244L960 0L946.7 0C933.3 0 906.7 0 880 0C853.3 0 826.7 0 800 0C773.3 0 746.7 0 720 0C693.3 0 666.7 0 640 0C613.3 0 586.7 0 560 0C533.3 0 506.7 0 480 0C453.3 0 426.7 0 400 0C373.3 0 346.7 0 320 0C293.3 0 266.7 0 240 0C213.3 0 186.7 0 160 0C133.3 0 106.7 0 80 0C53.3 0 26.7 0 13.3 0L0 0Z" fill="#f16367"></path><path d="M0 209L13.3 210.3C26.7 211.7 53.3 214.3 80 217.7C106.7 221 133.3 225 160 218.5C186.7 212 213.3 195 240 177.2C266.7 159.3 293.3 140.7 320 126.7C346.7 112.7 373.3 103.3 400 116.8C426.7 130.3 453.3 166.7 480 188.8C506.7 211 533.3 219 560 211.7C586.7 204.3 613.3 181.7 640 159.5C666.7 137.3 693.3 115.7 720 107.2C746.7 98.7 773.3 103.3 800 126.3C826.7 149.3 853.3 190.7 880 187C906.7 183.3 933.3 134.7 946.7 110.3L960 86L960 0L946.7 0C933.3 0 906.7 0 880 0C853.3 0 826.7 0 800 0C773.3 0 746.7 0 720 0C693.3 0 666.7 0 640 0C613.3 0 586.7 0 560 0C533.3 0 506.7 0 480 0C453.3 0 426.7 0 400 0C373.3 0 346.7 0 320 0C293.3 0 266.7 0 240 0C213.3 0 186.7 0 160 0C133.3 0 106.7 0 80 0C53.3 0 26.7 0 13.3 0L0 0Z" fill="#ed5b67"></path><path d="M0 177L13.3 175C26.7 173 53.3 169 80 161.8C106.7 154.7 133.3 144.3 160 146.2C186.7 148 213.3 162 240 170.2C266.7 178.3 293.3 180.7 320 180.3C346.7 180 373.3 177 400 165.8C426.7 154.7 453.3 135.3 480 129.8C506.7 124.3 533.3 132.7 560 140.3C586.7 148 613.3 155 640 161.8C666.7 168.7 693.3 175.3 720 170.3C746.7 165.3 773.3 148.7 800 147.8C826.7 147 853.3 162 880 164.7C906.7 167.3 933.3 157.7 946.7 152.8L960 148L960 0L946.7 0C933.3 0 906.7 0 880 0C853.3 0 826.7 0 800 0C773.3 0 746.7 0 720 0C693.3 0 666.7 0 640 0C613.3 0 586.7 0 560 0C533.3 0 506.7 0 480 0C453.3 0 426.7 0 400 0C373.3 0 346.7 0 320 0C293.3 0 266.7 0 240 0C213.3 0 186.7 0 160 0C133.3 0 106.7 0 80 0C53.3 0 26.7 0 13.3 0L0 0Z" fill="#e85467"></path><path d="M0 115L13.3 106.2C26.7 97.3 53.3 79.7 80 70C106.7 60.3 133.3 58.7 160 57.8C186.7 57 213.3 57 240 71.3C266.7 85.7 293.3 114.3 320 125.3C346.7 136.3 373.3 129.7 400 116.2C426.7 102.7 453.3 82.3 480 85.2C506.7 88 533.3 114 560 133.2C586.7 152.3 613.3 164.7 640 160.8C666.7 157 693.3 137 720 128.2C746.7 119.3 773.3 121.7 800 118.3C826.7 115 853.3 106 880 95.8C906.7 85.7 933.3 74.3 946.7 68.7L960 63L960 0L946.7 0C933.3 0 906.7 0 880 0C853.3 0 826.7 0 800 0C773.3 0 746.7 0 720 0C693.3 0 666.7 0 640 0C613.3 0 586.7 0 560 0C533.3 0 506.7 0 480 0C453.3 0 426.7 0 400 0C373.3 0 346.7 0 320 0C293.3 0 266.7 0 240 0C213.3 0 186.7 0 160 0C133.3 0 106.7 0 80 0C53.3 0 26.7 0 13.3 0L0 0Z" fill="#e34c67"></path><path d="M0 104L13.3 97.2C26.7 90.3 53.3 76.7 80 81.7C106.7 86.7 133.3 110.3 160 109C186.7 107.7 213.3 81.3 240 80.8C266.7 80.3 293.3 105.7 320 108C346.7 110.3 373.3 89.7 400 82.2C426.7 74.7 453.3 80.3 480 78.7C506.7 77 533.3 68 560 77.3C586.7 86.7 613.3 114.3 640 118.5C666.7 122.7 693.3 103.3 720 102.8C746.7 102.3 773.3 120.7 800 121.2C826.7 121.7 853.3 104.3 880 98.3C906.7 92.3 933.3 97.7 946.7 100.3L960 103L960 0L946.7 0C933.3 0 906.7 0 880 0C853.3 0 826.7 0 800 0C773.3 0 746.7 0 720 0C693.3 0 666.7 0 640 0C613.3 0 586.7 0 560 0C533.3 0 506.7 0 480 0C453.3 0 426.7 0 400 0C373.3 0 346.7 0 320 0C293.3 0 266.7 0 240 0C213.3 0 186.7 0 160 0C133.3 0 106.7 0 80 0C53.3 0 26.7 0 13.3 0L0 0Z" fill="#de4467"></path><path d="M0 58L13.3 56.5C26.7 55 53.3 52 80 55.8C106.7 59.7 133.3 70.3 160 79.7C186.7 89 213.3 97 240 92.8C266.7 88.7 293.3 72.3 320 59.8C346.7 47.3 373.3 38.7 400 42.2C426.7 45.7 453.3 61.3 480 66.2C506.7 71 533.3 65 560 58C586.7 51 613.3 43 640 51.2C666.7 59.3 693.3 83.7 720 85.2C746.7 86.7 773.3 65.3 800 53.3C826.7 41.3 853.3 38.7 880 43.5C906.7 48.3 933.3 60.7 946.7 66.8L960 73L960 0L946.7 0C933.3 0 906.7 0 880 0C853.3 0 826.7 0 800 0C773.3 0 746.7 0 720 0C693.3 0 666.7 0 640 0C613.3 0 586.7 0 560 0C533.3 0 506.7 0 480 0C453.3 0 426.7 0 400 0C373.3 0 346.7 0 320 0C293.3 0 266.7 0 240 0C213.3 0 186.7 0 160 0C133.3 0 106.7 0 80 0C53.3 0 26.7 0 13.3 0L0 0Z" fill="#d83c67"></path><path d="M0 82L13.3 82.2C26.7 82.3 53.3 82.7 80 79.7C106.7 76.7 133.3 70.3 160 60.3C186.7 50.3 213.3 36.7 240 33C266.7 29.3 293.3 35.7 320 40.8C346.7 46 373.3 50 400 50C426.7 50 453.3 46 480 45C506.7 44 533.3 46 560 54.2C586.7 62.3 613.3 76.7 640 75C666.7 73.3 693.3 55.7 720 53C746.7 50.3 773.3 62.7 800 63.2C826.7 63.7 853.3 52.3 880 49.2C906.7 46 933.3 51 946.7 53.5L960 56L960 0L946.7 0C933.3 0 906.7 0 880 0C853.3 0 826.7 0 800 0C773.3 0 746.7 0 720 0C693.3 0 666.7 0 640 0C613.3 0 586.7 0 560 0C533.3 0 506.7 0 480 0C453.3 0 426.7 0 400 0C373.3 0 346.7 0 320 0C293.3 0 266.7 0 240 0C213.3 0 186.7 0 160 0C133.3 0 106.7 0 80 0C53.3 0 26.7 0 13.3 0L0 0Z" fill="#d23467"></path><path d="M0 41L13.3 46.8C26.7 52.7 53.3 64.3 80 67C106.7 69.7 133.3 63.3 160 56.5C186.7 49.7 213.3 42.3 240 37.5C266.7 32.7 293.3 30.3 320 34C346.7 37.7 373.3 47.3 400 53C426.7 58.7 453.3 60.3 480 54.3C506.7 48.3 533.3 34.7 560 27.8C586.7 21 613.3 21 640 27.5C666.7 34 693.3 47 720 50.5C746.7 54 773.3 48 800 50.5C826.7 53 853.3 64 880 63.3C906.7 62.7 933.3 50.3 946.7 44.2L960 38L960 0L946.7 0C933.3 0 906.7 0 880 0C853.3 0 826.7 0 800 0C773.3 0 746.7 0 720 0C693.3 0 666.7 0 640 0C613.3 0 586.7 0 560 0C533.3 0 506.7 0 480 0C453.3 0 426.7 0 400 0C373.3 0 346.7 0 320 0C293.3 0 266.7 0 240 0C213.3 0 186.7 0 160 0C133.3 0 106.7 0 80 0C53.3 0 26.7 0 13.3 0L0 0Z" fill="#cc2c68"></path><path d="M0 40L13.3 35.2C26.7 30.3 53.3 20.7 80 21.7C106.7 22.7 133.3 34.3 160 34.3C186.7 34.3 213.3 22.7 240 16.2C266.7 9.7 293.3 8.3 320 9C346.7 9.7 373.3 12.3 400 12.3C426.7 12.3 453.3 9.7 480 12.3C506.7 15 533.3 23 560 29.5C586.7 36 613.3 41 640 43.2C666.7 45.3 693.3 44.7 720 44.2C746.7 43.7 773.3 43.3 800 37.8C826.7 32.3 853.3 21.7 880 19.2C906.7 16.7 933.3 22.3 946.7 25.2L960 28L960 0L946.7 0C933.3 0 906.7 0 880 0C853.3 0 826.7 0 800 0C773.3 0 746.7 0 720 0C693.3 0 666.7 0 640 0C613.3 0 586.7 0 560 0C533.3 0 506.7 0 480 0C453.3 0 426.7 0 400 0C373.3 0 346.7 0 320 0C293.3 0 266.7 0 240 0C213.3 0 186.7 0 160 0C133.3 0 106.7 0 80 0C53.3 0 26.7 0 13.3 0L0 0Z" fill="#c62368"></path></svg>