<svg id="visual" viewBox="0 0 960 540" width="960" height="540" xmlns="http://www.w3.org/2000/svg" xmlns:xlink="http://www.w3.org/1999/xlink" version="1.1"><rect x="0" y="0" width="960" height="540" fill="#001220"></rect><path d="M0 420L11.5 414.3C23 408.7 46 397.3 68.8 401.8C91.7 406.3 114.3 426.7 137.2 439.8C160 453 183 459 205.8 467C228.7 475 251.3 485 274.2 478.8C297 472.7 320 450.3 342.8 433.2C365.7 416 388.3 404 411.2 401.5C434 399 457 406 480 419.7C503 433.3 526 453.7 548.8 463C571.7 472.3 594.3 470.7 617.2 473.2C640 475.7 663 482.3 685.8 471.5C708.7 460.7 731.3 432.3 754.2 420.2C777 408 800 412 822.8 409.7C845.7 407.3 868.3 398.7 891.2 404.8C914 411 937 432 948.5 442.5L960 453L960 0L948.5 0C937 0 914 0 891.2 0C868.3 0 845.7 0 822.8 0C800 0 777 0 754.2 0C731.3 0 708.7 0 685.8 0C663 0 640 0 617.2 0C594.3 0 571.7 0 548.8 0C526 0 503 0 480 0C457 0 434 0 411.2 0C388.3 0 365.7 0 342.8 0C320 0 297 0 274.2 0C251.3 0 228.7 0 205.8 0C183 0 160 0 137.2 0C114.3 0 91.7 0 68.8 0C46 0 23 0 11.5 0L0 0Z" fill="#fa7268"></path><path d="M0 364L11.5 366.2C23 368.3 46 372.7 68.8 389C91.7 405.3 114.3 433.7 137.2 429.7C160 425.7 183 389.3 205.8 372.5C228.7 355.7 251.3 358.3 274.2 360.8C297 363.3 320 365.7 342.8 379.7C365.7 393.7 388.3 419.3 411.2 423.5C434 427.7 457 410.3 480 396C503 381.7 526 370.3 548.8 366.7C571.7 363 594.3 367 617.2 379.8C640 392.7 663 414.3 685.8 410.8C708.7 407.3 731.3 378.7 754.2 380.5C777 382.3 800 414.7 822.8 430.3C845.7 446 868.3 445 891.2 443.3C914 441.7 937 439.3 948.5 438.2L960 437L960 0L948.5 0C937 0 914 0 891.2 0C868.3 0 845.7 0 822.8 0C800 0 777 0 754.2 0C731.3 0 708.7 0 685.8 0C663 0 640 0 617.2 0C594.3 0 571.7 0 548.8 0C526 0 503 0 480 0C457 0 434 0 411.2 0C388.3 0 365.7 0 342.8 0C320 0 297 0 274.2 0C251.3 0 228.7 0 205.8 0C183 0 160 0 137.2 0C114.3 0 91.7 0 68.8 0C46 0 23 0 11.5 0L0 0Z" fill="#f66a67"></path><path d="M0 353L11.5 358.5C23 364 46 375 68.8 383.5C91.7 392 114.3 398 137.2 398.7C160 399.3 183 394.7 205.8 385.2C228.7 375.7 251.3 361.3 274.2 353C297 344.7 320 342.3 342.8 353.7C365.7 365 388.3 390 411.2 385.7C434 381.3 457 347.7 480 345.8C503 344 526 374 548.8 387.7C571.7 401.3 594.3 398.7 617.2 390.2C640 381.7 663 367.3 685.8 369.2C708.7 371 731.3 389 754.2 399.7C777 410.3 800 413.7 822.8 408.8C845.7 404 868.3 391 891.2 388.8C914 386.7 937 395.3 948.5 399.7L960 404L960 0L948.5 0C937 0 914 0 891.2 0C868.3 0 845.7 0 822.8 0C800 0 777 0 754.2 0C731.3 0 708.7 0 685.8 0C663 0 640 0 617.2 0C594.3 0 571.7 0 548.8 0C526 0 503 0 480 0C457 0 434 0 411.2 0C388.3 0 365.7 0 342.8 0C320 0 297 0 274.2 0C251.3 0 228.7 0 205.8 0C183 0 160 0 137.2 0C114.3 0 91.7 0 68.8 0C46 0 23 0 11.5 0L0 0Z" fill="#f16367"></path><path d="M0 341L11.5 337.8C23 334.7 46 328.3 68.8 326.5C91.7 324.7 114.3 327.3 137.2 326.2C160 325 183 320 205.8 312.5C228.7 305 251.3 295 274.2 300.7C297 306.3 320 327.7 342.8 334.7C365.7 341.7 388.3 334.3 411.2 329.7C434 325 457 323 480 321.7C503 320.3 526 319.7 548.8 324.8C571.7 330 594.3 341 617.2 342.2C640 343.3 663 334.7 685.8 329.5C708.7 324.3 731.3 322.7 754.2 328C777 333.3 800 345.7 822.8 350.8C845.7 356 868.3 354 891.2 353.3C914 352.7 937 353.3 948.5 353.7L960 354L960 0L948.5 0C937 0 914 0 891.2 0C868.3 0 845.7 0 822.8 0C800 0 777 0 754.2 0C731.3 0 708.7 0 685.8 0C663 0 640 0 617.2 0C594.3 0 571.7 0 548.8 0C526 0 503 0 480 0C457 0 434 0 411.2 0C388.3 0 365.7 0 342.8 0C320 0 297 0 274.2 0C251.3 0 228.7 0 205.8 0C183 0 160 0 137.2 0C114.3 0 91.7 0 68.8 0C46 0 23 0 11.5 0L0 0Z" fill="#ed5b67"></path><path d="M0 282L11.5 286.8C23 291.7 46 301.3 68.8 306C91.7 310.7 114.3 310.3 137.2 299.3C160 288.3 183 266.7 205.8 255.3C228.7 244 251.3 243 274.2 250.2C297 257.3 320 272.7 342.8 281.3C365.7 290 388.3 292 411.2 296C434 300 457 306 480 300.2C503 294.3 526 276.7 548.8 276.5C571.7 276.3 594.3 293.7 617.2 298C640 302.3 663 293.7 685.8 291.2C708.7 288.7 731.3 292.3 754.2 288.5C777 284.7 800 273.3 822.8 268.8C845.7 264.3 868.3 266.7 891.2 272.7C914 278.7 937 288.3 948.5 293.2L960 298L960 0L948.5 0C937 0 914 0 891.2 0C868.3 0 845.7 0 822.8 0C800 0 777 0 754.2 0C731.3 0 708.7 0 685.8 0C663 0 640 0 617.2 0C594.3 0 571.7 0 548.8 0C526 0 503 0 480 0C457 0 434 0 411.2 0C388.3 0 365.7 0 342.8 0C320 0 297 0 274.2 0C251.3 0 228.7 0 205.8 0C183 0 160 0 137.2 0C114.3 0 91.7 0 68.8 0C46 0 23 0 11.5 0L0 0Z" fill="#e85467"></path><path d="M0 211L11.5 211.3C23 211.7 46 212.3 68.8 214.2C91.7 216 114.3 219 137.2 231.7C160 244.3 183 266.7 205.8 268C228.7 269.3 251.3 249.7 274.2 236C297 222.3 320 214.7 342.8 217.5C365.7 220.3 388.3 233.7 411.2 246.8C434 260 457 273 480 272.2C503 271.3 526 256.7 548.8 245.2C571.7 233.7 594.3 225.3 617.2 227C640 228.7 663 240.3 685.8 247.3C708.7 254.3 731.3 256.7 754.2 257.2C777 257.7 800 256.3 822.8 257.8C845.7 259.3 868.3 263.7 891.2 254.7C914 245.7 937 223.3 948.5 212.2L960 201L960 0L948.5 0C937 0 914 0 891.2 0C868.3 0 845.7 0 822.8 0C800 0 777 0 754.2 0C731.3 0 708.7 0 685.8 0C663 0 640 0 617.2 0C594.3 0 571.7 0 548.8 0C526 0 503 0 480 0C457 0 434 0 411.2 0C388.3 0 365.7 0 342.8 0C320 0 297 0 274.2 0C251.3 0 228.7 0 205.8 0C183 0 160 0 137.2 0C114.3 0 91.7 0 68.8 0C46 0 23 0 11.5 0L0 0Z" fill="#e34c67"></path><path d="M0 219L11.5 217.8C23 216.7 46 214.3 68.8 214C91.7 213.7 114.3 215.3 137.2 220.8C160 226.3 183 235.7 205.8 241.2C228.7 246.7 251.3 248.3 274.2 238.7C297 229 320 208 342.8 195.8C365.7 183.7 388.3 180.3 411.2 188.8C434 197.3 457 217.7 480 217.8C503 218 526 198 548.8 188.3C571.7 178.7 594.3 179.3 617.2 186.7C640 194 663 208 685.8 205.2C708.7 202.3 731.3 182.7 754.2 184C777 185.3 800 207.7 822.8 219C845.7 230.3 868.3 230.7 891.2 222.7C914 214.7 937 198.3 948.5 190.2L960 182L960 0L948.5 0C937 0 914 0 891.2 0C868.3 0 845.7 0 822.8 0C800 0 777 0 754.2 0C731.3 0 708.7 0 685.8 0C663 0 640 0 617.2 0C594.3 0 571.7 0 548.8 0C526 0 503 0 480 0C457 0 434 0 411.2 0C388.3 0 365.7 0 342.8 0C320 0 297 0 274.2 0C251.3 0 228.7 0 205.8 0C183 0 160 0 137.2 0C114.3 0 91.7 0 68.8 0C46 0 23 0 11.5 0L0 0Z" fill="#de4467"></path><path d="M0 130L11.5 130C23 130 46 130 68.8 133C91.7 136 114.3 142 137.2 149C160 156 183 164 205.8 166C228.7 168 251.3 164 274.2 156.5C297 149 320 138 342.8 135.5C365.7 133 388.3 139 411.2 142.3C434 145.7 457 146.3 480 149.8C503 153.3 526 159.7 548.8 167.5C571.7 175.3 594.3 184.7 617.2 179.2C640 173.7 663 153.3 685.8 148.8C708.7 144.3 731.3 155.7 754.2 154.3C777 153 800 139 822.8 132.7C845.7 126.3 868.3 127.7 891.2 135.3C914 143 937 157 948.5 164L960 171L960 0L948.5 0C937 0 914 0 891.2 0C868.3 0 845.7 0 822.8 0C800 0 777 0 754.2 0C731.3 0 708.7 0 685.8 0C663 0 640 0 617.2 0C594.3 0 571.7 0 548.8 0C526 0 503 0 480 0C457 0 434 0 411.2 0C388.3 0 365.7 0 342.8 0C320 0 297 0 274.2 0C251.3 0 228.7 0 205.8 0C183 0 160 0 137.2 0C114.3 0 91.7 0 68.8 0C46 0 23 0 11.5 0L0 0Z" fill="#d83c67"></path><path d="M0 100L11.5 103.3C23 106.7 46 113.3 68.8 122.2C91.7 131 114.3 142 137.2 145.5C160 149 183 145 205.8 135.8C228.7 126.7 251.3 112.3 274.2 109.7C297 107 320 116 342.8 126.7C365.7 137.3 388.3 149.7 411.2 150C434 150.3 457 138.7 480 132.3C503 126 526 125 548.8 124.8C571.7 124.7 594.3 125.3 617.2 121.2C640 117 663 108 685.8 105C708.7 102 731.3 105 754.2 109.5C777 114 800 120 822.8 123.7C845.7 127.3 868.3 128.7 891.2 126.8C914 125 937 120 948.5 117.5L960 115L960 0L948.5 0C937 0 914 0 891.2 0C868.3 0 845.7 0 822.8 0C800 0 777 0 754.2 0C731.3 0 708.7 0 685.8 0C663 0 640 0 617.2 0C594.3 0 571.7 0 548.8 0C526 0 503 0 480 0C457 0 434 0 411.2 0C388.3 0 365.7 0 342.8 0C320 0 297 0 274.2 0C251.3 0 228.7 0 205.8 0C183 0 160 0 137.2 0C114.3 0 91.7 0 68.8 0C46 0 23 0 11.5 0L0 0Z" fill="#d23467"></path><path d="M0 82L11.5 77C23 72 46 62 68.8 59.3C91.7 56.7 114.3 61.3 137.2 63C160 64.7 183 63.3 205.8 68.3C228.7 73.3 251.3 84.7 274.2 83C297 81.3 320 66.7 342.8 63.3C365.7 60 388.3 68 411.2 69.5C434 71 457 66 480 63.7C503 61.3 526 61.7 548.8 70.5C571.7 79.3 594.3 96.7 617.2 95.5C640 94.3 663 74.7 685.8 71.5C708.7 68.3 731.3 81.7 754.2 83.7C777 85.7 800 76.3 822.8 70.8C845.7 65.3 868.3 63.7 891.2 70.7C914 77.7 937 93.3 948.5 101.2L960 109L960 0L948.5 0C937 0 914 0 891.2 0C868.3 0 845.7 0 822.8 0C800 0 777 0 754.2 0C731.3 0 708.7 0 685.8 0C663 0 640 0 617.2 0C594.3 0 571.7 0 548.8 0C526 0 503 0 480 0C457 0 434 0 411.2 0C388.3 0 365.7 0 342.8 0C320 0 297 0 274.2 0C251.3 0 228.7 0 205.8 0C183 0 160 0 137.2 0C114.3 0 91.7 0 68.8 0C46 0 23 0 11.5 0L0 0Z" fill="#cc2c68"></path><path d="M0 34L11.5 35.2C23 36.3 46 38.7 68.8 35.5C91.7 32.3 114.3 23.7 137.2 19.5C160 15.3 183 15.7 205.8 22C228.7 28.3 251.3 40.7 274.2 49.8C297 59 320 65 342.8 68C365.7 71 388.3 71 411.2 69.5C434 68 457 65 480 65.2C503 65.3 526 68.7 548.8 64.3C571.7 60 594.3 48 617.2 39.5C640 31 663 26 685.8 31.5C708.7 37 731.3 53 754.2 60C777 67 800 65 822.8 59.7C845.7 54.3 868.3 45.7 891.2 46.8C914 48 937 59 948.5 64.5L960 70L960 0L948.5 0C937 0 914 0 891.2 0C868.3 0 845.7 0 822.8 0C800 0 777 0 754.2 0C731.3 0 708.7 0 685.8 0C663 0 640 0 617.2 0C594.3 0 571.7 0 548.8 0C526 0 503 0 480 0C457 0 434 0 411.2 0C388.3 0 365.7 0 342.8 0C320 0 297 0 274.2 0C251.3 0 228.7 0 205.8 0C183 0 160 0 137.2 0C114.3 0 91.7 0 68.8 0C46 0 23 0 11.5 0L0 0Z" fill="#c62368"></path></svg>