<svg id="visual" viewBox="0 0 960 540" width="960" height="540" xmlns="http://www.w3.org/2000/svg" xmlns:xlink="http://www.w3.org/1999/xlink" version="1.1"><rect x="0" y="0" width="960" height="540" fill="#001220"></rect><path d="M0 118L11.5 123.7C23 129.3 46 140.7 68.8 136.2C91.7 131.7 114.3 111.3 137.2 98.2C160 85 183 79 205.8 71C228.7 63 251.3 53 274.2 59.2C297 65.3 320 87.7 342.8 104.8C365.7 122 388.3 134 411.2 136.5C434 139 457 132 480 118.3C503 104.7 526 84.3 548.8 75C571.7 65.7 594.3 67.3 617.2 64.8C640 62.3 663 55.7 685.8 66.5C708.7 77.3 731.3 105.7 754.2 117.8C777 130 800 126 822.8 128.3C845.7 130.7 868.3 139.3 891.2 133.2C914 127 937 106 948.5 95.5L960 85L960 541L948.5 541C937 541 914 541 891.2 541C868.3 541 845.7 541 822.8 541C800 541 777 541 754.2 541C731.3 541 708.7 541 685.8 541C663 541 640 541 617.2 541C594.3 541 571.7 541 548.8 541C526 541 503 541 480 541C457 541 434 541 411.2 541C388.3 541 365.7 541 342.8 541C320 541 297 541 274.2 541C251.3 541 228.7 541 205.8 541C183 541 160 541 137.2 541C114.3 541 91.7 541 68.8 541C46 541 23 541 11.5 541L0 541Z" fill="#fa7268"></path><path d="M0 174L11.5 171.8C23 169.7 46 165.3 68.8 149C91.7 132.7 114.3 104.3 137.2 108.3C160 112.3 183 148.7 205.8 165.5C228.7 182.3 251.3 179.7 274.2 177.2C297 174.7 320 172.3 342.8 158.3C365.7 144.3 388.3 118.7 411.2 114.5C434 110.3 457 127.7 480 142C503 156.3 526 167.7 548.8 171.3C571.7 175 594.3 171 617.2 158.2C640 145.3 663 123.7 685.8 127.2C708.7 130.7 731.3 159.3 754.2 157.5C777 155.7 800 123.3 822.8 107.7C845.7 92 868.3 93 891.2 94.7C914 96.3 937 98.7 948.5 99.8L960 101L960 541L948.5 541C937 541 914 541 891.2 541C868.3 541 845.7 541 822.8 541C800 541 777 541 754.2 541C731.3 541 708.7 541 685.8 541C663 541 640 541 617.2 541C594.3 541 571.7 541 548.8 541C526 541 503 541 480 541C457 541 434 541 411.2 541C388.3 541 365.7 541 342.8 541C320 541 297 541 274.2 541C251.3 541 228.7 541 205.8 541C183 541 160 541 137.2 541C114.3 541 91.7 541 68.8 541C46 541 23 541 11.5 541L0 541Z" fill="#f66a67"></path><path d="M0 185L11.5 179.5C23 174 46 163 68.8 154.5C91.7 146 114.3 140 137.2 139.3C160 138.7 183 143.3 205.8 152.8C228.7 162.3 251.3 176.7 274.2 185C297 193.3 320 195.7 342.8 184.3C365.7 173 388.3 148 411.2 152.3C434 156.7 457 190.3 480 192.2C503 194 526 164 548.8 150.3C571.7 136.7 594.3 139.3 617.2 147.8C640 156.3 663 170.7 685.8 168.8C708.7 167 731.3 149 754.2 138.3C777 127.7 800 124.3 822.8 129.2C845.7 134 868.3 147 891.2 149.2C914 151.3 937 142.7 948.5 138.3L960 134L960 541L948.5 541C937 541 914 541 891.2 541C868.3 541 845.7 541 822.8 541C800 541 777 541 754.2 541C731.3 541 708.7 541 685.8 541C663 541 640 541 617.2 541C594.3 541 571.7 541 548.8 541C526 541 503 541 480 541C457 541 434 541 411.2 541C388.3 541 365.7 541 342.8 541C320 541 297 541 274.2 541C251.3 541 228.7 541 205.8 541C183 541 160 541 137.2 541C114.3 541 91.7 541 68.8 541C46 541 23 541 11.5 541L0 541Z" fill="#f16367"></path><path d="M0 197L11.5 200.2C23 203.3 46 209.7 68.8 211.5C91.7 213.3 114.3 210.7 137.2 211.8C160 213 183 218 205.8 225.5C228.7 233 251.3 243 274.2 237.3C297 231.7 320 210.3 342.8 203.3C365.7 196.3 388.3 203.7 411.2 208.3C434 213 457 215 480 216.3C503 217.7 526 218.3 548.8 213.2C571.7 208 594.3 197 617.2 195.8C640 194.7 663 203.3 685.8 208.5C708.7 213.7 731.3 215.3 754.2 210C777 204.7 800 192.3 822.8 187.2C845.7 182 868.3 184 891.2 184.7C914 185.3 937 184.7 948.5 184.3L960 184L960 541L948.5 541C937 541 914 541 891.2 541C868.3 541 845.7 541 822.8 541C800 541 777 541 754.2 541C731.3 541 708.7 541 685.8 541C663 541 640 541 617.2 541C594.3 541 571.7 541 548.8 541C526 541 503 541 480 541C457 541 434 541 411.2 541C388.3 541 365.7 541 342.8 541C320 541 297 541 274.2 541C251.3 541 228.7 541 205.8 541C183 541 160 541 137.2 541C114.3 541 91.7 541 68.8 541C46 541 23 541 11.5 541L0 541Z" fill="#ed5b67"></path><path d="M0 256L11.5 251.2C23 246.3 46 236.7 68.8 232C91.7 227.3 114.3 227.7 137.2 238.7C160 249.7 183 271.3 205.8 282.7C228.7 294 251.3 295 274.2 287.8C297 280.7 320 265.3 342.8 256.7C365.7 248 388.3 246 411.2 242C434 238 457 232 480 237.8C503 243.7 526 261.3 548.8 261.5C571.7 261.7 594.3 244.3 617.2 240C640 235.7 663 244.3 685.8 246.8C708.7 249.3 731.3 245.7 754.2 249.5C777 253.3 800 264.7 822.8 269.2C845.7 273.7 868.3 271.3 891.2 265.3C914 259.3 937 249.7 948.5 244.8L960 240L960 541L948.5 541C937 541 914 541 891.2 541C868.3 541 845.7 541 822.8 541C800 541 777 541 754.2 541C731.3 541 708.7 541 685.8 541C663 541 640 541 617.2 541C594.3 541 571.7 541 548.8 541C526 541 503 541 480 541C457 541 434 541 411.2 541C388.3 541 365.7 541 342.8 541C320 541 297 541 274.2 541C251.3 541 228.7 541 205.8 541C183 541 160 541 137.2 541C114.3 541 91.7 541 68.8 541C46 541 23 541 11.5 541L0 541Z" fill="#e85467"></path><path d="M0 327L11.5 326.7C23 326.3 46 325.7 68.8 323.8C91.7 322 114.3 319 137.2 306.3C160 293.7 183 271.3 205.8 270C228.7 268.7 251.3 288.3 274.2 302C297 315.7 320 323.3 342.8 320.5C365.7 317.7 388.3 304.3 411.2 291.2C434 278 457 265 480 265.8C503 266.7 526 281.3 548.8 292.8C571.7 304.3 594.3 312.7 617.2 311C640 309.3 663 297.7 685.8 290.7C708.7 283.7 731.3 281.3 754.2 280.8C777 280.3 800 281.7 822.8 280.2C845.7 278.7 868.3 274.3 891.2 283.3C914 292.3 937 314.7 948.5 325.8L960 337L960 541L948.5 541C937 541 914 541 891.2 541C868.3 541 845.7 541 822.8 541C800 541 777 541 754.2 541C731.3 541 708.7 541 685.8 541C663 541 640 541 617.2 541C594.3 541 571.7 541 548.8 541C526 541 503 541 480 541C457 541 434 541 411.2 541C388.3 541 365.7 541 342.8 541C320 541 297 541 274.2 541C251.3 541 228.7 541 205.8 541C183 541 160 541 137.2 541C114.3 541 91.7 541 68.8 541C46 541 23 541 11.5 541L0 541Z" fill="#e34c67"></path><path d="M0 319L11.5 320.2C23 321.3 46 323.7 68.8 324C91.7 324.3 114.3 322.7 137.2 317.2C160 311.7 183 302.3 205.8 296.8C228.7 291.3 251.3 289.7 274.2 299.3C297 309 320 330 342.8 342.2C365.7 354.3 388.3 357.7 411.2 349.2C434 340.7 457 320.3 480 320.2C503 320 526 340 548.8 349.7C571.7 359.3 594.3 358.7 617.2 351.3C640 344 663 330 685.8 332.8C708.7 335.7 731.3 355.3 754.2 354C777 352.7 800 330.3 822.8 319C845.7 307.7 868.3 307.3 891.2 315.3C914 323.3 937 339.7 948.5 347.8L960 356L960 541L948.5 541C937 541 914 541 891.2 541C868.3 541 845.7 541 822.8 541C800 541 777 541 754.2 541C731.3 541 708.7 541 685.8 541C663 541 640 541 617.2 541C594.3 541 571.7 541 548.8 541C526 541 503 541 480 541C457 541 434 541 411.2 541C388.3 541 365.7 541 342.8 541C320 541 297 541 274.2 541C251.3 541 228.7 541 205.8 541C183 541 160 541 137.2 541C114.3 541 91.7 541 68.8 541C46 541 23 541 11.5 541L0 541Z" fill="#de4467"></path><path d="M0 408L11.5 408C23 408 46 408 68.8 405C91.7 402 114.3 396 137.2 389C160 382 183 374 205.8 372C228.7 370 251.3 374 274.2 381.5C297 389 320 400 342.8 402.5C365.7 405 388.3 399 411.2 395.7C434 392.3 457 391.7 480 388.2C503 384.7 526 378.3 548.8 370.5C571.7 362.7 594.3 353.3 617.2 358.8C640 364.3 663 384.7 685.8 389.2C708.7 393.7 731.3 382.3 754.2 383.7C777 385 800 399 822.8 405.3C845.7 411.7 868.3 410.3 891.2 402.7C914 395 937 381 948.5 374L960 367L960 541L948.5 541C937 541 914 541 891.2 541C868.3 541 845.7 541 822.8 541C800 541 777 541 754.2 541C731.3 541 708.7 541 685.8 541C663 541 640 541 617.2 541C594.3 541 571.7 541 548.8 541C526 541 503 541 480 541C457 541 434 541 411.2 541C388.3 541 365.7 541 342.8 541C320 541 297 541 274.2 541C251.3 541 228.7 541 205.8 541C183 541 160 541 137.2 541C114.3 541 91.7 541 68.8 541C46 541 23 541 11.5 541L0 541Z" fill="#d83c67"></path><path d="M0 438L11.5 434.7C23 431.3 46 424.7 68.8 415.8C91.7 407 114.3 396 137.2 392.5C160 389 183 393 205.8 402.2C228.7 411.3 251.3 425.7 274.2 428.3C297 431 320 422 342.8 411.3C365.7 400.7 388.3 388.3 411.2 388C434 387.7 457 399.3 480 405.7C503 412 526 413 548.8 413.2C571.7 413.3 594.3 412.7 617.2 416.8C640 421 663 430 685.8 433C708.7 436 731.3 433 754.2 428.5C777 424 800 418 822.8 414.3C845.7 410.7 868.3 409.3 891.2 411.2C914 413 937 418 948.5 420.5L960 423L960 541L948.5 541C937 541 914 541 891.2 541C868.3 541 845.7 541 822.8 541C800 541 777 541 754.2 541C731.3 541 708.7 541 685.8 541C663 541 640 541 617.2 541C594.3 541 571.7 541 548.8 541C526 541 503 541 480 541C457 541 434 541 411.2 541C388.3 541 365.7 541 342.8 541C320 541 297 541 274.2 541C251.3 541 228.7 541 205.8 541C183 541 160 541 137.2 541C114.3 541 91.7 541 68.8 541C46 541 23 541 11.5 541L0 541Z" fill="#d23467"></path><path d="M0 456L11.5 461C23 466 46 476 68.8 478.7C91.7 481.3 114.3 476.7 137.2 475C160 473.3 183 474.7 205.8 469.7C228.7 464.7 251.3 453.3 274.2 455C297 456.7 320 471.3 342.8 474.7C365.7 478 388.3 470 411.2 468.5C434 467 457 472 480 474.3C503 476.7 526 476.3 548.8 467.5C571.7 458.7 594.3 441.3 617.2 442.5C640 443.7 663 463.3 685.8 466.5C708.7 469.7 731.3 456.3 754.2 454.3C777 452.3 800 461.7 822.8 467.2C845.7 472.7 868.3 474.3 891.2 467.3C914 460.3 937 444.7 948.5 436.8L960 429L960 541L948.5 541C937 541 914 541 891.2 541C868.3 541 845.7 541 822.8 541C800 541 777 541 754.2 541C731.3 541 708.7 541 685.8 541C663 541 640 541 617.2 541C594.3 541 571.7 541 548.8 541C526 541 503 541 480 541C457 541 434 541 411.2 541C388.3 541 365.7 541 342.8 541C320 541 297 541 274.2 541C251.3 541 228.7 541 205.8 541C183 541 160 541 137.2 541C114.3 541 91.7 541 68.8 541C46 541 23 541 11.5 541L0 541Z" fill="#cc2c68"></path><path d="M0 504L11.5 502.8C23 501.7 46 499.3 68.8 502.5C91.7 505.7 114.3 514.3 137.2 518.5C160 522.7 183 522.3 205.8 516C228.7 509.7 251.3 497.3 274.2 488.2C297 479 320 473 342.8 470C365.7 467 388.3 467 411.2 468.5C434 470 457 473 480 472.8C503 472.7 526 469.3 548.8 473.7C571.7 478 594.3 490 617.2 498.5C640 507 663 512 685.8 506.5C708.7 501 731.3 485 754.2 478C777 471 800 473 822.8 478.3C845.7 483.7 868.3 492.3 891.2 491.2C914 490 937 479 948.5 473.5L960 468L960 541L948.5 541C937 541 914 541 891.2 541C868.3 541 845.7 541 822.8 541C800 541 777 541 754.2 541C731.3 541 708.7 541 685.8 541C663 541 640 541 617.2 541C594.3 541 571.7 541 548.8 541C526 541 503 541 480 541C457 541 434 541 411.2 541C388.3 541 365.7 541 342.8 541C320 541 297 541 274.2 541C251.3 541 228.7 541 205.8 541C183 541 160 541 137.2 541C114.3 541 91.7 541 68.8 541C46 541 23 541 11.5 541L0 541Z" fill="#c62368"></path></svg>