<svg id="visual" viewBox="0 0 960 540" width="960" height="540" xmlns="http://www.w3.org/2000/svg" xmlns:xlink="http://www.w3.org/1999/xlink" version="1.1"><rect x="0" y="0" width="960" height="540" fill="#001220"></rect><path d="M0 304L11.5 328.5C23 353 46 402 68.8 418.7C91.7 435.3 114.3 419.7 137.2 414C160 408.3 183 412.7 205.8 399.5C228.7 386.3 251.3 355.7 274.2 333.7C297 311.7 320 298.3 342.8 292.2C365.7 286 388.3 287 411.2 313.2C434 339.3 457 390.7 480 420.8C503 451 526 460 548.8 422C571.7 384 594.3 299 617.2 273.5C640 248 663 282 685.8 294.3C708.7 306.7 731.3 297.3 754.2 310.3C777 323.3 800 358.7 822.8 347.8C845.7 337 868.3 280 891.2 276.5C914 273 937 323 948.5 348L960 373L960 0L948.5 0C937 0 914 0 891.2 0C868.3 0 845.7 0 822.8 0C800 0 777 0 754.2 0C731.3 0 708.7 0 685.8 0C663 0 640 0 617.2 0C594.3 0 571.7 0 548.8 0C526 0 503 0 480 0C457 0 434 0 411.2 0C388.3 0 365.7 0 342.8 0C320 0 297 0 274.2 0C251.3 0 228.7 0 205.8 0C183 0 160 0 137.2 0C114.3 0 91.7 0 68.8 0C46 0 23 0 11.5 0L0 0Z" fill="#fa7268"></path><path d="M0 343L11.5 357.5C23 372 46 401 68.8 387.3C91.7 373.7 114.3 317.3 137.2 318.3C160 319.3 183 377.7 205.8 386.8C228.7 396 251.3 356 274.2 325.5C297 295 320 274 342.8 265.5C365.7 257 388.3 261 411.2 265.5C434 270 457 275 480 298.3C503 321.7 526 363.3 548.8 363.7C571.7 364 594.3 323 617.2 328.2C640 333.3 663 384.7 685.8 389.2C708.7 393.7 731.3 351.3 754.2 323.7C777 296 800 283 822.8 280C845.7 277 868.3 284 891.2 275C914 266 937 241 948.5 228.5L960 216L960 0L948.5 0C937 0 914 0 891.2 0C868.3 0 845.7 0 822.8 0C800 0 777 0 754.2 0C731.3 0 708.7 0 685.8 0C663 0 640 0 617.2 0C594.3 0 571.7 0 548.8 0C526 0 503 0 480 0C457 0 434 0 411.2 0C388.3 0 365.7 0 342.8 0C320 0 297 0 274.2 0C251.3 0 228.7 0 205.8 0C183 0 160 0 137.2 0C114.3 0 91.7 0 68.8 0C46 0 23 0 11.5 0L0 0Z" fill="#f66a67"></path><path d="M0 393L11.5 378.7C23 364.3 46 335.7 68.8 304.2C91.7 272.7 114.3 238.3 137.2 246.3C160 254.3 183 304.7 205.8 312.2C228.7 319.7 251.3 284.3 274.2 280.5C297 276.7 320 304.3 342.8 304C365.7 303.7 388.3 275.3 411.2 249.8C434 224.3 457 201.7 480 188.5C503 175.3 526 171.7 548.8 179.2C571.7 186.7 594.3 205.3 617.2 236.7C640 268 663 312 685.8 336.8C708.7 361.7 731.3 367.3 754.2 368.2C777 369 800 365 822.8 338.5C845.7 312 868.3 263 891.2 256.2C914 249.3 937 284.7 948.5 302.3L960 320L960 0L948.5 0C937 0 914 0 891.2 0C868.3 0 845.7 0 822.8 0C800 0 777 0 754.2 0C731.3 0 708.7 0 685.8 0C663 0 640 0 617.2 0C594.3 0 571.7 0 548.8 0C526 0 503 0 480 0C457 0 434 0 411.2 0C388.3 0 365.7 0 342.8 0C320 0 297 0 274.2 0C251.3 0 228.7 0 205.8 0C183 0 160 0 137.2 0C114.3 0 91.7 0 68.8 0C46 0 23 0 11.5 0L0 0Z" fill="#f16367"></path><path d="M0 231L11.5 241.3C23 251.7 46 272.3 68.8 280.5C91.7 288.7 114.3 284.3 137.2 263.2C160 242 183 204 205.8 209.3C228.7 214.7 251.3 263.3 274.2 275.8C297 288.3 320 264.7 342.8 238C365.7 211.3 388.3 181.7 411.2 183.8C434 186 457 220 480 233.5C503 247 526 240 548.8 243C571.7 246 594.3 259 617.2 270.8C640 282.7 663 293.3 685.8 275.3C708.7 257.3 731.3 210.7 754.2 216.5C777 222.3 800 280.7 822.8 291.5C845.7 302.3 868.3 265.7 891.2 252.7C914 239.7 937 250.3 948.5 255.7L960 261L960 0L948.5 0C937 0 914 0 891.2 0C868.3 0 845.7 0 822.8 0C800 0 777 0 754.2 0C731.3 0 708.7 0 685.8 0C663 0 640 0 617.2 0C594.3 0 571.7 0 548.8 0C526 0 503 0 480 0C457 0 434 0 411.2 0C388.3 0 365.7 0 342.8 0C320 0 297 0 274.2 0C251.3 0 228.7 0 205.8 0C183 0 160 0 137.2 0C114.3 0 91.7 0 68.8 0C46 0 23 0 11.5 0L0 0Z" fill="#ed5b67"></path><path d="M0 198L11.5 204C23 210 46 222 68.8 221.7C91.7 221.3 114.3 208.7 137.2 196C160 183.3 183 170.7 205.8 171.3C228.7 172 251.3 186 274.2 193.7C297 201.3 320 202.7 342.8 201.2C365.7 199.7 388.3 195.3 411.2 212.8C434 230.3 457 269.7 480 265.8C503 262 526 215 548.8 203C571.7 191 594.3 214 617.2 218.2C640 222.3 663 207.7 685.8 209.8C708.7 212 731.3 231 754.2 245C777 259 800 268 822.8 248.2C845.7 228.3 868.3 179.7 891.2 154.7C914 129.7 937 128.3 948.5 127.7L960 127L960 0L948.5 0C937 0 914 0 891.2 0C868.3 0 845.7 0 822.8 0C800 0 777 0 754.2 0C731.3 0 708.7 0 685.8 0C663 0 640 0 617.2 0C594.3 0 571.7 0 548.8 0C526 0 503 0 480 0C457 0 434 0 411.2 0C388.3 0 365.7 0 342.8 0C320 0 297 0 274.2 0C251.3 0 228.7 0 205.8 0C183 0 160 0 137.2 0C114.3 0 91.7 0 68.8 0C46 0 23 0 11.5 0L0 0Z" fill="#e85467"></path><path d="M0 165L11.5 165.3C23 165.7 46 166.3 68.8 159.2C91.7 152 114.3 137 137.2 128.7C160 120.3 183 118.7 205.8 116C228.7 113.3 251.3 109.7 274.2 133C297 156.3 320 206.7 342.8 212.8C365.7 219 388.3 181 411.2 158.2C434 135.3 457 127.7 480 147C503 166.3 526 212.7 548.8 216C571.7 219.3 594.3 179.7 617.2 164.7C640 149.7 663 159.3 685.8 161.2C708.7 163 731.3 157 754.2 160.2C777 163.3 800 175.7 822.8 186C845.7 196.3 868.3 204.7 891.2 199.3C914 194 937 175 948.5 165.5L960 156L960 0L948.5 0C937 0 914 0 891.2 0C868.3 0 845.7 0 822.8 0C800 0 777 0 754.2 0C731.3 0 708.7 0 685.8 0C663 0 640 0 617.2 0C594.3 0 571.7 0 548.8 0C526 0 503 0 480 0C457 0 434 0 411.2 0C388.3 0 365.7 0 342.8 0C320 0 297 0 274.2 0C251.3 0 228.7 0 205.8 0C183 0 160 0 137.2 0C114.3 0 91.7 0 68.8 0C46 0 23 0 11.5 0L0 0Z" fill="#e34c67"></path><path d="M0 156L11.5 161.8C23 167.7 46 179.3 68.8 175C91.7 170.7 114.3 150.3 137.2 147.8C160 145.3 183 160.7 205.8 177.3C228.7 194 251.3 212 274.2 200.8C297 189.7 320 149.3 342.8 136C365.7 122.7 388.3 136.3 411.2 143.8C434 151.3 457 152.7 480 145.5C503 138.3 526 122.7 548.8 135.2C571.7 147.7 594.3 188.3 617.2 209.3C640 230.3 663 231.7 685.8 230.7C708.7 229.7 731.3 226.3 754.2 217.8C777 209.3 800 195.7 822.8 173.5C845.7 151.3 868.3 120.7 891.2 112.5C914 104.3 937 118.7 948.5 125.8L960 133L960 0L948.5 0C937 0 914 0 891.2 0C868.3 0 845.7 0 822.8 0C800 0 777 0 754.2 0C731.3 0 708.7 0 685.8 0C663 0 640 0 617.2 0C594.3 0 571.7 0 548.8 0C526 0 503 0 480 0C457 0 434 0 411.2 0C388.3 0 365.7 0 342.8 0C320 0 297 0 274.2 0C251.3 0 228.7 0 205.8 0C183 0 160 0 137.2 0C114.3 0 91.7 0 68.8 0C46 0 23 0 11.5 0L0 0Z" fill="#de4467"></path><path d="M0 150L11.5 148.7C23 147.3 46 144.7 68.8 142.2C91.7 139.7 114.3 137.3 137.2 144.8C160 152.3 183 169.7 205.8 170C228.7 170.3 251.3 153.7 274.2 141.3C297 129 320 121 342.8 120.7C365.7 120.3 388.3 127.7 411.2 136.8C434 146 457 157 480 164C503 171 526 174 548.8 168.5C571.7 163 594.3 149 617.2 148.8C640 148.7 663 162.3 685.8 163C708.7 163.7 731.3 151.3 754.2 151.2C777 151 800 163 822.8 159.7C845.7 156.3 868.3 137.7 891.2 133.5C914 129.3 937 139.7 948.5 144.8L960 150L960 0L948.5 0C937 0 914 0 891.2 0C868.3 0 845.7 0 822.8 0C800 0 777 0 754.2 0C731.3 0 708.7 0 685.8 0C663 0 640 0 617.2 0C594.3 0 571.7 0 548.8 0C526 0 503 0 480 0C457 0 434 0 411.2 0C388.3 0 365.7 0 342.8 0C320 0 297 0 274.2 0C251.3 0 228.7 0 205.8 0C183 0 160 0 137.2 0C114.3 0 91.7 0 68.8 0C46 0 23 0 11.5 0L0 0Z" fill="#d83c67"></path><path d="M0 156L11.5 153.3C23 150.7 46 145.3 68.8 129.8C91.7 114.3 114.3 88.7 137.2 85.3C160 82 183 101 205.8 110.3C228.7 119.7 251.3 119.3 274.2 118.7C297 118 320 117 342.8 108.3C365.7 99.7 388.3 83.3 411.2 86.5C434 89.7 457 112.3 480 116C503 119.7 526 104.3 548.8 92.8C571.7 81.3 594.3 73.7 617.2 68.7C640 63.7 663 61.3 685.8 63.8C708.7 66.3 731.3 73.7 754.2 89.8C777 106 800 131 822.8 138C845.7 145 868.3 134 891.2 126.3C914 118.7 937 114.3 948.5 112.2L960 110L960 0L948.5 0C937 0 914 0 891.2 0C868.3 0 845.7 0 822.8 0C800 0 777 0 754.2 0C731.3 0 708.7 0 685.8 0C663 0 640 0 617.2 0C594.3 0 571.7 0 548.8 0C526 0 503 0 480 0C457 0 434 0 411.2 0C388.3 0 365.7 0 342.8 0C320 0 297 0 274.2 0C251.3 0 228.7 0 205.8 0C183 0 160 0 137.2 0C114.3 0 91.7 0 68.8 0C46 0 23 0 11.5 0L0 0Z" fill="#d23467"></path><path d="M0 37L11.5 49.8C23 62.7 46 88.3 68.8 95C91.7 101.7 114.3 89.3 137.2 85.7C160 82 183 87 205.8 90C228.7 93 251.3 94 274.2 96.8C297 99.7 320 104.3 342.8 105C365.7 105.7 388.3 102.3 411.2 99.7C434 97 457 95 480 91.2C503 87.3 526 81.7 548.8 73.7C571.7 65.7 594.3 55.3 617.2 57.2C640 59 663 73 685.8 78.3C708.7 83.7 731.3 80.3 754.2 71.7C777 63 800 49 822.8 48C845.7 47 868.3 59 891.2 62.3C914 65.7 937 60.3 948.5 57.7L960 55L960 0L948.5 0C937 0 914 0 891.2 0C868.3 0 845.7 0 822.8 0C800 0 777 0 754.2 0C731.3 0 708.7 0 685.8 0C663 0 640 0 617.2 0C594.3 0 571.7 0 548.8 0C526 0 503 0 480 0C457 0 434 0 411.2 0C388.3 0 365.7 0 342.8 0C320 0 297 0 274.2 0C251.3 0 228.7 0 205.8 0C183 0 160 0 137.2 0C114.3 0 91.7 0 68.8 0C46 0 23 0 11.5 0L0 0Z" fill="#cc2c68"></path><path d="M0 28L11.5 30.7C23 33.3 46 38.7 68.8 37.7C91.7 36.7 114.3 29.3 137.2 30.3C160 31.3 183 40.7 205.8 40.7C228.7 40.7 251.3 31.3 274.2 27.7C297 24 320 26 342.8 28.3C365.7 30.7 388.3 33.3 411.2 34.8C434 36.3 457 36.7 480 33C503 29.3 526 21.7 548.8 21.8C571.7 22 594.3 30 617.2 35.2C640 40.3 663 42.7 685.8 42C708.7 41.3 731.3 37.7 754.2 37C777 36.3 800 38.7 822.8 43.3C845.7 48 868.3 55 891.2 58.3C914 61.7 937 61.3 948.5 61.2L960 61L960 0L948.5 0C937 0 914 0 891.2 0C868.3 0 845.7 0 822.8 0C800 0 777 0 754.2 0C731.3 0 708.7 0 685.8 0C663 0 640 0 617.2 0C594.3 0 571.7 0 548.8 0C526 0 503 0 480 0C457 0 434 0 411.2 0C388.3 0 365.7 0 342.8 0C320 0 297 0 274.2 0C251.3 0 228.7 0 205.8 0C183 0 160 0 137.2 0C114.3 0 91.7 0 68.8 0C46 0 23 0 11.5 0L0 0Z" fill="#c62368"></path></svg>