<svg id="visual" viewBox="0 0 960 540" width="960" height="540" xmlns="http://www.w3.org/2000/svg" xmlns:xlink="http://www.w3.org/1999/xlink" version="1.1"><rect x="0" y="0" width="960" height="540" fill="#001220"></rect><path d="M0 317L13.3 314.5C26.7 312 53.3 307 80 301.5C106.7 296 133.3 290 160 304.5C186.7 319 213.3 354 240 371C266.7 388 293.3 387 320 364.3C346.7 341.7 373.3 297.3 400 306C426.7 314.7 453.3 376.3 480 379C506.7 381.7 533.3 325.3 560 317.5C586.7 309.7 613.3 350.3 640 355.8C666.7 361.3 693.3 331.7 720 336.8C746.7 342 773.3 382 800 384.2C826.7 386.3 853.3 350.7 880 323.7C906.7 296.7 933.3 278.3 946.7 269.2L960 260L960 541L946.7 541C933.3 541 906.7 541 880 541C853.3 541 826.7 541 800 541C773.3 541 746.7 541 720 541C693.3 541 666.7 541 640 541C613.3 541 586.7 541 560 541C533.3 541 506.7 541 480 541C453.3 541 426.7 541 400 541C373.3 541 346.7 541 320 541C293.3 541 266.7 541 240 541C213.3 541 186.7 541 160 541C133.3 541 106.7 541 80 541C53.3 541 26.7 541 13.3 541L0 541Z" fill="#fa7268"></path><path d="M0 442L13.3 424.7C26.7 407.3 53.3 372.7 80 356.3C106.7 340 133.3 342 160 352.5C186.7 363 213.3 382 240 384C266.7 386 293.3 371 320 354.3C346.7 337.7 373.3 319.3 400 306.5C426.7 293.7 453.3 286.3 480 310.2C506.7 334 533.3 389 560 403.3C586.7 417.7 613.3 391.3 640 377.3C666.7 363.3 693.3 361.7 720 361.3C746.7 361 773.3 362 800 352.3C826.7 342.7 853.3 322.3 880 311.5C906.7 300.7 933.3 299.3 946.7 298.7L960 298L960 541L946.7 541C933.3 541 906.7 541 880 541C853.3 541 826.7 541 800 541C773.3 541 746.7 541 720 541C693.3 541 666.7 541 640 541C613.3 541 586.7 541 560 541C533.3 541 506.7 541 480 541C453.3 541 426.7 541 400 541C373.3 541 346.7 541 320 541C293.3 541 266.7 541 240 541C213.3 541 186.7 541 160 541C133.3 541 106.7 541 80 541C53.3 541 26.7 541 13.3 541L0 541Z" fill="#f66a67"></path><path d="M0 379L13.3 364.2C26.7 349.3 53.3 319.7 80 331.7C106.7 343.7 133.3 397.3 160 400.2C186.7 403 213.3 355 240 351.2C266.7 347.3 293.3 387.7 320 408.8C346.7 430 373.3 432 400 425.5C426.7 419 453.3 404 480 392.7C506.7 381.3 533.3 373.7 560 375.3C586.7 377 613.3 388 640 383C666.7 378 693.3 357 720 361.7C746.7 366.3 773.3 396.7 800 401.2C826.7 405.7 853.3 384.3 880 362.2C906.7 340 933.3 317 946.7 305.5L960 294L960 541L946.7 541C933.3 541 906.7 541 880 541C853.3 541 826.7 541 800 541C773.3 541 746.7 541 720 541C693.3 541 666.7 541 640 541C613.3 541 586.7 541 560 541C533.3 541 506.7 541 480 541C453.3 541 426.7 541 400 541C373.3 541 346.7 541 320 541C293.3 541 266.7 541 240 541C213.3 541 186.7 541 160 541C133.3 541 106.7 541 80 541C53.3 541 26.7 541 13.3 541L0 541Z" fill="#f16367"></path><path d="M0 329L13.3 327.7C26.7 326.3 53.3 323.7 80 320.3C106.7 317 133.3 313 160 319.5C186.7 326 213.3 343 240 360.8C266.7 378.7 293.3 397.3 320 411.3C346.7 425.3 373.3 434.7 400 421.2C426.7 407.7 453.3 371.3 480 349.2C506.7 327 533.3 319 560 326.3C586.7 333.7 613.3 356.3 640 378.5C666.7 400.7 693.3 422.3 720 430.8C746.7 439.3 773.3 434.7 800 411.7C826.7 388.7 853.3 347.3 880 351C906.7 354.7 933.3 403.3 946.7 427.7L960 452L960 541L946.7 541C933.3 541 906.7 541 880 541C853.3 541 826.7 541 800 541C773.3 541 746.7 541 720 541C693.3 541 666.7 541 640 541C613.3 541 586.7 541 560 541C533.3 541 506.7 541 480 541C453.3 541 426.7 541 400 541C373.3 541 346.7 541 320 541C293.3 541 266.7 541 240 541C213.3 541 186.7 541 160 541C133.3 541 106.7 541 80 541C53.3 541 26.7 541 13.3 541L0 541Z" fill="#ed5b67"></path><path d="M0 361L13.3 363C26.7 365 53.3 369 80 376.2C106.7 383.3 133.3 393.7 160 391.8C186.7 390 213.3 376 240 367.8C266.7 359.7 293.3 357.3 320 357.7C346.7 358 373.3 361 400 372.2C426.7 383.3 453.3 402.7 480 408.2C506.7 413.7 533.3 405.3 560 397.7C586.7 390 613.3 383 640 376.2C666.7 369.3 693.3 362.7 720 367.7C746.7 372.7 773.3 389.3 800 390.2C826.7 391 853.3 376 880 373.3C906.7 370.7 933.3 380.3 946.7 385.2L960 390L960 541L946.7 541C933.3 541 906.7 541 880 541C853.3 541 826.7 541 800 541C773.3 541 746.7 541 720 541C693.3 541 666.7 541 640 541C613.3 541 586.7 541 560 541C533.3 541 506.7 541 480 541C453.3 541 426.7 541 400 541C373.3 541 346.7 541 320 541C293.3 541 266.7 541 240 541C213.3 541 186.7 541 160 541C133.3 541 106.7 541 80 541C53.3 541 26.7 541 13.3 541L0 541Z" fill="#e85467"></path><path d="M0 423L13.3 431.8C26.7 440.7 53.3 458.3 80 468C106.7 477.7 133.3 479.3 160 480.2C186.7 481 213.3 481 240 466.7C266.7 452.3 293.3 423.7 320 412.7C346.7 401.7 373.3 408.3 400 421.8C426.7 435.3 453.3 455.7 480 452.8C506.7 450 533.3 424 560 404.8C586.7 385.7 613.3 373.3 640 377.2C666.7 381 693.3 401 720 409.8C746.7 418.7 773.3 416.3 800 419.7C826.7 423 853.3 432 880 442.2C906.7 452.3 933.3 463.7 946.7 469.3L960 475L960 541L946.7 541C933.3 541 906.7 541 880 541C853.3 541 826.7 541 800 541C773.3 541 746.7 541 720 541C693.3 541 666.7 541 640 541C613.3 541 586.7 541 560 541C533.3 541 506.7 541 480 541C453.3 541 426.7 541 400 541C373.3 541 346.7 541 320 541C293.3 541 266.7 541 240 541C213.3 541 186.7 541 160 541C133.3 541 106.7 541 80 541C53.3 541 26.7 541 13.3 541L0 541Z" fill="#e34c67"></path><path d="M0 434L13.3 440.8C26.7 447.7 53.3 461.3 80 456.3C106.7 451.3 133.3 427.7 160 429C186.7 430.3 213.3 456.7 240 457.2C266.7 457.7 293.3 432.3 320 430C346.7 427.7 373.3 448.3 400 455.8C426.7 463.3 453.3 457.7 480 459.3C506.7 461 533.3 470 560 460.7C586.7 451.3 613.3 423.7 640 419.5C666.7 415.3 693.3 434.7 720 435.2C746.7 435.7 773.3 417.3 800 416.8C826.7 416.3 853.3 433.7 880 439.7C906.7 445.7 933.3 440.3 946.7 437.7L960 435L960 541L946.7 541C933.3 541 906.7 541 880 541C853.3 541 826.7 541 800 541C773.3 541 746.7 541 720 541C693.3 541 666.7 541 640 541C613.3 541 586.7 541 560 541C533.3 541 506.7 541 480 541C453.3 541 426.7 541 400 541C373.3 541 346.7 541 320 541C293.3 541 266.7 541 240 541C213.3 541 186.7 541 160 541C133.3 541 106.7 541 80 541C53.3 541 26.7 541 13.3 541L0 541Z" fill="#de4467"></path><path d="M0 480L13.3 481.5C26.7 483 53.3 486 80 482.2C106.7 478.3 133.3 467.7 160 458.3C186.7 449 213.3 441 240 445.2C266.7 449.3 293.3 465.7 320 478.2C346.7 490.7 373.3 499.3 400 495.8C426.7 492.3 453.3 476.7 480 471.8C506.7 467 533.3 473 560 480C586.7 487 613.3 495 640 486.8C666.7 478.7 693.3 454.3 720 452.8C746.7 451.3 773.3 472.7 800 484.7C826.7 496.7 853.3 499.3 880 494.5C906.7 489.7 933.3 477.3 946.7 471.2L960 465L960 541L946.7 541C933.3 541 906.7 541 880 541C853.3 541 826.7 541 800 541C773.3 541 746.7 541 720 541C693.3 541 666.7 541 640 541C613.3 541 586.7 541 560 541C533.3 541 506.7 541 480 541C453.3 541 426.7 541 400 541C373.3 541 346.7 541 320 541C293.3 541 266.7 541 240 541C213.3 541 186.7 541 160 541C133.3 541 106.7 541 80 541C53.3 541 26.7 541 13.3 541L0 541Z" fill="#d83c67"></path><path d="M0 456L13.3 455.8C26.7 455.7 53.3 455.3 80 458.3C106.7 461.3 133.3 467.7 160 477.7C186.7 487.7 213.3 501.3 240 505C266.7 508.7 293.3 502.3 320 497.2C346.7 492 373.3 488 400 488C426.7 488 453.3 492 480 493C506.7 494 533.3 492 560 483.8C586.7 475.7 613.3 461.3 640 463C666.7 464.7 693.3 482.3 720 485C746.7 487.7 773.3 475.3 800 474.8C826.7 474.3 853.3 485.7 880 488.8C906.7 492 933.3 487 946.7 484.5L960 482L960 541L946.7 541C933.3 541 906.7 541 880 541C853.3 541 826.7 541 800 541C773.3 541 746.7 541 720 541C693.3 541 666.7 541 640 541C613.3 541 586.7 541 560 541C533.3 541 506.7 541 480 541C453.3 541 426.7 541 400 541C373.3 541 346.7 541 320 541C293.3 541 266.7 541 240 541C213.3 541 186.7 541 160 541C133.3 541 106.7 541 80 541C53.3 541 26.7 541 13.3 541L0 541Z" fill="#d23467"></path><path d="M0 497L13.3 491.2C26.7 485.3 53.3 473.7 80 471C106.7 468.3 133.3 474.7 160 481.5C186.7 488.3 213.3 495.7 240 500.5C266.7 505.3 293.3 507.7 320 504C346.7 500.3 373.3 490.7 400 485C426.7 479.3 453.3 477.7 480 483.7C506.7 489.7 533.3 503.3 560 510.2C586.7 517 613.3 517 640 510.5C666.7 504 693.3 491 720 487.5C746.7 484 773.3 490 800 487.5C826.7 485 853.3 474 880 474.7C906.7 475.3 933.3 487.7 946.7 493.8L960 500L960 541L946.7 541C933.3 541 906.7 541 880 541C853.3 541 826.7 541 800 541C773.3 541 746.7 541 720 541C693.3 541 666.7 541 640 541C613.3 541 586.7 541 560 541C533.3 541 506.7 541 480 541C453.3 541 426.7 541 400 541C373.3 541 346.7 541 320 541C293.3 541 266.7 541 240 541C213.3 541 186.7 541 160 541C133.3 541 106.7 541 80 541C53.3 541 26.7 541 13.3 541L0 541Z" fill="#cc2c68"></path><path d="M0 498L13.3 502.8C26.7 507.7 53.3 517.3 80 516.3C106.7 515.3 133.3 503.7 160 503.7C186.7 503.7 213.3 515.3 240 521.8C266.7 528.3 293.3 529.7 320 529C346.7 528.3 373.3 525.7 400 525.7C426.7 525.7 453.3 528.3 480 525.7C506.7 523 533.3 515 560 508.5C586.7 502 613.3 497 640 494.8C666.7 492.7 693.3 493.3 720 493.8C746.7 494.3 773.3 494.7 800 500.2C826.7 505.7 853.3 516.3 880 518.8C906.7 521.3 933.3 515.7 946.7 512.8L960 510L960 541L946.7 541C933.3 541 906.7 541 880 541C853.3 541 826.7 541 800 541C773.3 541 746.7 541 720 541C693.3 541 666.7 541 640 541C613.3 541 586.7 541 560 541C533.3 541 506.7 541 480 541C453.3 541 426.7 541 400 541C373.3 541 346.7 541 320 541C293.3 541 266.7 541 240 541C213.3 541 186.7 541 160 541C133.3 541 106.7 541 80 541C53.3 541 26.7 541 13.3 541L0 541Z" fill="#c62368"></path></svg>