<svg id="visual" viewBox="0 0 960 540" width="960" height="540" xmlns="http://www.w3.org/2000/svg" xmlns:xlink="http://www.w3.org/1999/xlink" version="1.1"><rect x="0" y="0" width="960" height="540" fill="#001220"></rect><path d="M0 382L11.5 374.3C23 366.7 46 351.3 68.8 345.2C91.7 339 114.3 342 137.2 329.3C160 316.7 183 288.3 205.8 273.7C228.7 259 251.3 258 274.2 265C297 272 320 287 342.8 299.2C365.7 311.3 388.3 320.7 411.2 339C434 357.3 457 384.7 480 389C503 393.3 526 374.7 548.8 357.7C571.7 340.7 594.3 325.3 617.2 326.2C640 327 663 344 685.8 345.5C708.7 347 731.3 333 754.2 330C777 327 800 335 822.8 349.7C845.7 364.3 868.3 385.7 891.2 371.5C914 357.3 937 307.7 948.5 282.8L960 258L960 541L948.5 541C937 541 914 541 891.2 541C868.3 541 845.7 541 822.8 541C800 541 777 541 754.2 541C731.3 541 708.7 541 685.8 541C663 541 640 541 617.2 541C594.3 541 571.7 541 548.8 541C526 541 503 541 480 541C457 541 434 541 411.2 541C388.3 541 365.7 541 342.8 541C320 541 297 541 274.2 541C251.3 541 228.7 541 205.8 541C183 541 160 541 137.2 541C114.3 541 91.7 541 68.8 541C46 541 23 541 11.5 541L0 541Z" fill="#c62368"></path><path d="M0 346L11.5 358.2C23 370.3 46 394.7 68.8 395.2C91.7 395.7 114.3 372.3 137.2 355.3C160 338.3 183 327.7 205.8 335.8C228.7 344 251.3 371 274.2 372C297 373 320 348 342.8 346.7C365.7 345.3 388.3 367.7 411.2 366.3C434 365 457 340 480 329.8C503 319.7 526 324.3 548.8 326.2C571.7 328 594.3 327 617.2 342.3C640 357.7 663 389.3 685.8 391.2C708.7 393 731.3 365 754.2 349.5C777 334 800 331 822.8 336.2C845.7 341.3 868.3 354.7 891.2 372.3C914 390 937 412 948.5 423L960 434L960 541L948.5 541C937 541 914 541 891.2 541C868.3 541 845.7 541 822.8 541C800 541 777 541 754.2 541C731.3 541 708.7 541 685.8 541C663 541 640 541 617.2 541C594.3 541 571.7 541 548.8 541C526 541 503 541 480 541C457 541 434 541 411.2 541C388.3 541 365.7 541 342.8 541C320 541 297 541 274.2 541C251.3 541 228.7 541 205.8 541C183 541 160 541 137.2 541C114.3 541 91.7 541 68.8 541C46 541 23 541 11.5 541L0 541Z" fill="#d23467"></path><path d="M0 376L11.5 375.8C23 375.7 46 375.3 68.8 389.8C91.7 404.3 114.3 433.7 137.2 438.7C160 443.7 183 424.3 205.8 404.7C228.7 385 251.3 365 274.2 375.2C297 385.3 320 425.7 342.8 440.7C365.7 455.7 388.3 445.3 411.2 440.5C434 435.7 457 436.3 480 429.5C503 422.7 526 408.3 548.8 391.5C571.7 374.7 594.3 355.3 617.2 350.2C640 345 663 354 685.8 364C708.7 374 731.3 385 754.2 397.2C777 409.3 800 422.7 822.8 432.3C845.7 442 868.3 448 891.2 448.8C914 449.7 937 445.3 948.5 443.2L960 441L960 541L948.5 541C937 541 914 541 891.2 541C868.3 541 845.7 541 822.8 541C800 541 777 541 754.2 541C731.3 541 708.7 541 685.8 541C663 541 640 541 617.2 541C594.3 541 571.7 541 548.8 541C526 541 503 541 480 541C457 541 434 541 411.2 541C388.3 541 365.7 541 342.8 541C320 541 297 541 274.2 541C251.3 541 228.7 541 205.8 541C183 541 160 541 137.2 541C114.3 541 91.7 541 68.8 541C46 541 23 541 11.5 541L0 541Z" fill="#de4467"></path><path d="M0 485L11.5 468.8C23 452.7 46 420.3 68.8 408.3C91.7 396.3 114.3 404.7 137.2 415.3C160 426 183 439 205.8 434.7C228.7 430.3 251.3 408.7 274.2 403.2C297 397.7 320 408.3 342.8 416C365.7 423.7 388.3 428.3 411.2 424C434 419.7 457 406.3 480 409.3C503 412.3 526 431.7 548.8 435.2C571.7 438.7 594.3 426.3 617.2 415.3C640 404.3 663 394.7 685.8 396.5C708.7 398.3 731.3 411.7 754.2 415.7C777 419.7 800 414.3 822.8 420.5C845.7 426.7 868.3 444.3 891.2 447.2C914 450 937 438 948.5 432L960 426L960 541L948.5 541C937 541 914 541 891.2 541C868.3 541 845.7 541 822.8 541C800 541 777 541 754.2 541C731.3 541 708.7 541 685.8 541C663 541 640 541 617.2 541C594.3 541 571.7 541 548.8 541C526 541 503 541 480 541C457 541 434 541 411.2 541C388.3 541 365.7 541 342.8 541C320 541 297 541 274.2 541C251.3 541 228.7 541 205.8 541C183 541 160 541 137.2 541C114.3 541 91.7 541 68.8 541C46 541 23 541 11.5 541L0 541Z" fill="#e85467"></path><path d="M0 489L11.5 482.7C23 476.3 46 463.7 68.8 463C91.7 462.3 114.3 473.7 137.2 478.8C160 484 183 483 205.8 483.3C228.7 483.7 251.3 485.3 274.2 483.3C297 481.3 320 475.7 342.8 468C365.7 460.3 388.3 450.7 411.2 446C434 441.3 457 441.7 480 451.8C503 462 526 482 548.8 491.5C571.7 501 594.3 500 617.2 492.3C640 484.7 663 470.3 685.8 467.7C708.7 465 731.3 474 754.2 470.7C777 467.3 800 451.7 822.8 452.3C845.7 453 868.3 470 891.2 470.2C914 470.3 937 453.7 948.5 445.3L960 437L960 541L948.5 541C937 541 914 541 891.2 541C868.3 541 845.7 541 822.8 541C800 541 777 541 754.2 541C731.3 541 708.7 541 685.8 541C663 541 640 541 617.2 541C594.3 541 571.7 541 548.8 541C526 541 503 541 480 541C457 541 434 541 411.2 541C388.3 541 365.7 541 342.8 541C320 541 297 541 274.2 541C251.3 541 228.7 541 205.8 541C183 541 160 541 137.2 541C114.3 541 91.7 541 68.8 541C46 541 23 541 11.5 541L0 541Z" fill="#f16367"></path><path d="M0 485L11.5 489.2C23 493.3 46 501.7 68.8 502.5C91.7 503.3 114.3 496.7 137.2 497.5C160 498.3 183 506.7 205.8 508.7C228.7 510.7 251.3 506.3 274.2 503.5C297 500.7 320 499.3 342.8 493.3C365.7 487.3 388.3 476.7 411.2 475C434 473.3 457 480.7 480 489.8C503 499 526 510 548.8 509.7C571.7 509.3 594.3 497.7 617.2 492.2C640 486.7 663 487.3 685.8 486.5C708.7 485.7 731.3 483.3 754.2 479.3C777 475.3 800 469.7 822.8 470.2C845.7 470.7 868.3 477.3 891.2 484.7C914 492 937 500 948.5 504L960 508L960 541L948.5 541C937 541 914 541 891.2 541C868.3 541 845.7 541 822.8 541C800 541 777 541 754.2 541C731.3 541 708.7 541 685.8 541C663 541 640 541 617.2 541C594.3 541 571.7 541 548.8 541C526 541 503 541 480 541C457 541 434 541 411.2 541C388.3 541 365.7 541 342.8 541C320 541 297 541 274.2 541C251.3 541 228.7 541 205.8 541C183 541 160 541 137.2 541C114.3 541 91.7 541 68.8 541C46 541 23 541 11.5 541L0 541Z" fill="#fa7268"></path></svg>