<svg id="visual" viewBox="0 0 960 540" width="960" height="540" xmlns="http://www.w3.org/2000/svg" xmlns:xlink="http://www.w3.org/1999/xlink" version="1.1"><rect x="0" y="0" width="960" height="540" fill="#001220"></rect><path d="M0 234L11.5 209.5C23 185 46 136 68.8 119.3C91.7 102.7 114.3 118.3 137.2 124C160 129.7 183 125.3 205.8 138.5C228.7 151.7 251.3 182.3 274.2 204.3C297 226.3 320 239.7 342.8 245.8C365.7 252 388.3 251 411.2 224.8C434 198.7 457 147.3 480 117.2C503 87 526 78 548.8 116C571.7 154 594.3 239 617.2 264.5C640 290 663 256 685.8 243.7C708.7 231.3 731.3 240.7 754.2 227.7C777 214.7 800 179.3 822.8 190.2C845.7 201 868.3 258 891.2 261.5C914 265 937 215 948.5 190L960 165L960 541L948.5 541C937 541 914 541 891.2 541C868.3 541 845.7 541 822.8 541C800 541 777 541 754.2 541C731.3 541 708.7 541 685.8 541C663 541 640 541 617.2 541C594.3 541 571.7 541 548.8 541C526 541 503 541 480 541C457 541 434 541 411.2 541C388.3 541 365.7 541 342.8 541C320 541 297 541 274.2 541C251.3 541 228.7 541 205.8 541C183 541 160 541 137.2 541C114.3 541 91.7 541 68.8 541C46 541 23 541 11.5 541L0 541Z" fill="#fa7268"></path><path d="M0 195L11.5 180.5C23 166 46 137 68.8 150.7C91.7 164.3 114.3 220.7 137.2 219.7C160 218.7 183 160.3 205.8 151.2C228.7 142 251.3 182 274.2 212.5C297 243 320 264 342.8 272.5C365.7 281 388.3 277 411.2 272.5C434 268 457 263 480 239.7C503 216.3 526 174.7 548.8 174.3C571.7 174 594.3 215 617.2 209.8C640 204.7 663 153.3 685.8 148.8C708.7 144.3 731.3 186.7 754.2 214.3C777 242 800 255 822.8 258C845.7 261 868.3 254 891.2 263C914 272 937 297 948.5 309.5L960 322L960 541L948.5 541C937 541 914 541 891.2 541C868.3 541 845.7 541 822.8 541C800 541 777 541 754.2 541C731.3 541 708.7 541 685.8 541C663 541 640 541 617.2 541C594.3 541 571.7 541 548.8 541C526 541 503 541 480 541C457 541 434 541 411.2 541C388.3 541 365.7 541 342.8 541C320 541 297 541 274.2 541C251.3 541 228.7 541 205.8 541C183 541 160 541 137.2 541C114.3 541 91.7 541 68.8 541C46 541 23 541 11.5 541L0 541Z" fill="#f66a67"></path><path d="M0 145L11.5 159.3C23 173.7 46 202.3 68.8 233.8C91.7 265.3 114.3 299.7 137.2 291.7C160 283.7 183 233.3 205.8 225.8C228.7 218.3 251.3 253.7 274.2 257.5C297 261.3 320 233.7 342.8 234C365.7 234.3 388.3 262.7 411.2 288.2C434 313.7 457 336.3 480 349.5C503 362.7 526 366.3 548.8 358.8C571.7 351.3 594.3 332.7 617.2 301.3C640 270 663 226 685.8 201.2C708.7 176.3 731.3 170.7 754.2 169.8C777 169 800 173 822.8 199.5C845.7 226 868.3 275 891.2 281.8C914 288.7 937 253.3 948.5 235.7L960 218L960 541L948.5 541C937 541 914 541 891.2 541C868.3 541 845.7 541 822.8 541C800 541 777 541 754.2 541C731.3 541 708.7 541 685.8 541C663 541 640 541 617.2 541C594.3 541 571.7 541 548.8 541C526 541 503 541 480 541C457 541 434 541 411.2 541C388.3 541 365.7 541 342.8 541C320 541 297 541 274.2 541C251.3 541 228.7 541 205.8 541C183 541 160 541 137.2 541C114.3 541 91.7 541 68.8 541C46 541 23 541 11.5 541L0 541Z" fill="#f16367"></path><path d="M0 307L11.5 296.7C23 286.3 46 265.7 68.8 257.5C91.7 249.3 114.3 253.7 137.2 274.8C160 296 183 334 205.8 328.7C228.7 323.3 251.3 274.7 274.2 262.2C297 249.7 320 273.3 342.8 300C365.7 326.7 388.3 356.3 411.2 354.2C434 352 457 318 480 304.5C503 291 526 298 548.8 295C571.7 292 594.3 279 617.2 267.2C640 255.3 663 244.7 685.8 262.7C708.7 280.7 731.3 327.3 754.2 321.5C777 315.7 800 257.3 822.8 246.5C845.7 235.7 868.3 272.3 891.2 285.3C914 298.3 937 287.7 948.5 282.3L960 277L960 541L948.5 541C937 541 914 541 891.2 541C868.3 541 845.7 541 822.8 541C800 541 777 541 754.2 541C731.3 541 708.7 541 685.8 541C663 541 640 541 617.2 541C594.3 541 571.7 541 548.8 541C526 541 503 541 480 541C457 541 434 541 411.2 541C388.3 541 365.7 541 342.8 541C320 541 297 541 274.2 541C251.3 541 228.7 541 205.8 541C183 541 160 541 137.2 541C114.3 541 91.7 541 68.8 541C46 541 23 541 11.5 541L0 541Z" fill="#ed5b67"></path><path d="M0 340L11.5 334C23 328 46 316 68.8 316.3C91.7 316.7 114.3 329.3 137.2 342C160 354.7 183 367.3 205.8 366.7C228.7 366 251.3 352 274.2 344.3C297 336.7 320 335.3 342.8 336.8C365.7 338.3 388.3 342.7 411.2 325.2C434 307.7 457 268.3 480 272.2C503 276 526 323 548.8 335C571.7 347 594.3 324 617.2 319.8C640 315.7 663 330.3 685.8 328.2C708.7 326 731.3 307 754.2 293C777 279 800 270 822.8 289.8C845.7 309.7 868.3 358.3 891.2 383.3C914 408.3 937 409.7 948.5 410.3L960 411L960 541L948.5 541C937 541 914 541 891.2 541C868.3 541 845.7 541 822.8 541C800 541 777 541 754.2 541C731.3 541 708.7 541 685.8 541C663 541 640 541 617.2 541C594.3 541 571.7 541 548.8 541C526 541 503 541 480 541C457 541 434 541 411.2 541C388.3 541 365.7 541 342.8 541C320 541 297 541 274.2 541C251.3 541 228.7 541 205.8 541C183 541 160 541 137.2 541C114.3 541 91.7 541 68.8 541C46 541 23 541 11.5 541L0 541Z" fill="#e85467"></path><path d="M0 373L11.5 372.7C23 372.3 46 371.7 68.8 378.8C91.7 386 114.3 401 137.2 409.3C160 417.7 183 419.3 205.8 422C228.7 424.7 251.3 428.3 274.2 405C297 381.7 320 331.3 342.8 325.2C365.7 319 388.3 357 411.2 379.8C434 402.7 457 410.3 480 391C503 371.7 526 325.3 548.8 322C571.7 318.7 594.3 358.3 617.2 373.3C640 388.3 663 378.7 685.8 376.8C708.7 375 731.3 381 754.2 377.8C777 374.7 800 362.3 822.8 352C845.7 341.7 868.3 333.3 891.2 338.7C914 344 937 363 948.5 372.5L960 382L960 541L948.5 541C937 541 914 541 891.2 541C868.3 541 845.7 541 822.8 541C800 541 777 541 754.2 541C731.3 541 708.7 541 685.8 541C663 541 640 541 617.2 541C594.3 541 571.7 541 548.8 541C526 541 503 541 480 541C457 541 434 541 411.2 541C388.3 541 365.7 541 342.8 541C320 541 297 541 274.2 541C251.3 541 228.7 541 205.8 541C183 541 160 541 137.2 541C114.3 541 91.7 541 68.8 541C46 541 23 541 11.5 541L0 541Z" fill="#e34c67"></path><path d="M0 382L11.5 376.2C23 370.3 46 358.7 68.8 363C91.7 367.3 114.3 387.7 137.2 390.2C160 392.7 183 377.3 205.8 360.7C228.7 344 251.3 326 274.2 337.2C297 348.3 320 388.7 342.8 402C365.7 415.3 388.3 401.7 411.2 394.2C434 386.7 457 385.3 480 392.5C503 399.7 526 415.3 548.8 402.8C571.7 390.3 594.3 349.7 617.2 328.7C640 307.7 663 306.3 685.8 307.3C708.7 308.3 731.3 311.7 754.2 320.2C777 328.7 800 342.3 822.8 364.5C845.7 386.7 868.3 417.3 891.2 425.5C914 433.7 937 419.3 948.5 412.2L960 405L960 541L948.5 541C937 541 914 541 891.2 541C868.3 541 845.7 541 822.8 541C800 541 777 541 754.2 541C731.3 541 708.7 541 685.8 541C663 541 640 541 617.2 541C594.3 541 571.7 541 548.8 541C526 541 503 541 480 541C457 541 434 541 411.2 541C388.3 541 365.7 541 342.8 541C320 541 297 541 274.2 541C251.3 541 228.7 541 205.8 541C183 541 160 541 137.2 541C114.3 541 91.7 541 68.8 541C46 541 23 541 11.5 541L0 541Z" fill="#de4467"></path><path d="M0 388L11.5 389.3C23 390.7 46 393.3 68.8 395.8C91.7 398.3 114.3 400.7 137.2 393.2C160 385.7 183 368.3 205.8 368C228.7 367.7 251.3 384.3 274.2 396.7C297 409 320 417 342.8 417.3C365.7 417.7 388.3 410.3 411.2 401.2C434 392 457 381 480 374C503 367 526 364 548.8 369.5C571.7 375 594.3 389 617.2 389.2C640 389.3 663 375.7 685.8 375C708.7 374.3 731.3 386.7 754.2 386.8C777 387 800 375 822.8 378.3C845.7 381.7 868.3 400.3 891.2 404.5C914 408.7 937 398.3 948.5 393.2L960 388L960 541L948.5 541C937 541 914 541 891.2 541C868.3 541 845.7 541 822.8 541C800 541 777 541 754.2 541C731.3 541 708.7 541 685.8 541C663 541 640 541 617.2 541C594.3 541 571.7 541 548.8 541C526 541 503 541 480 541C457 541 434 541 411.2 541C388.3 541 365.7 541 342.8 541C320 541 297 541 274.2 541C251.3 541 228.7 541 205.8 541C183 541 160 541 137.2 541C114.3 541 91.7 541 68.8 541C46 541 23 541 11.5 541L0 541Z" fill="#d83c67"></path><path d="M0 382L11.5 384.7C23 387.3 46 392.7 68.8 408.2C91.7 423.7 114.3 449.3 137.2 452.7C160 456 183 437 205.8 427.7C228.7 418.3 251.3 418.7 274.2 419.3C297 420 320 421 342.8 429.7C365.7 438.3 388.3 454.7 411.2 451.5C434 448.3 457 425.7 480 422C503 418.3 526 433.7 548.8 445.2C571.7 456.7 594.3 464.3 617.2 469.3C640 474.3 663 476.7 685.8 474.2C708.7 471.7 731.3 464.3 754.2 448.2C777 432 800 407 822.8 400C845.7 393 868.3 404 891.2 411.7C914 419.3 937 423.7 948.5 425.8L960 428L960 541L948.5 541C937 541 914 541 891.2 541C868.3 541 845.7 541 822.8 541C800 541 777 541 754.2 541C731.3 541 708.7 541 685.8 541C663 541 640 541 617.2 541C594.3 541 571.7 541 548.8 541C526 541 503 541 480 541C457 541 434 541 411.2 541C388.3 541 365.7 541 342.8 541C320 541 297 541 274.2 541C251.3 541 228.7 541 205.8 541C183 541 160 541 137.2 541C114.3 541 91.7 541 68.8 541C46 541 23 541 11.5 541L0 541Z" fill="#d23467"></path><path d="M0 501L11.5 488.2C23 475.3 46 449.7 68.8 443C91.7 436.3 114.3 448.7 137.2 452.3C160 456 183 451 205.8 448C228.7 445 251.3 444 274.2 441.2C297 438.3 320 433.7 342.8 433C365.7 432.3 388.3 435.7 411.2 438.3C434 441 457 443 480 446.8C503 450.7 526 456.3 548.8 464.3C571.7 472.3 594.3 482.7 617.2 480.8C640 479 663 465 685.8 459.7C708.7 454.3 731.3 457.7 754.2 466.3C777 475 800 489 822.8 490C845.7 491 868.3 479 891.2 475.7C914 472.3 937 477.7 948.5 480.3L960 483L960 541L948.5 541C937 541 914 541 891.2 541C868.3 541 845.7 541 822.8 541C800 541 777 541 754.2 541C731.3 541 708.7 541 685.8 541C663 541 640 541 617.2 541C594.3 541 571.7 541 548.8 541C526 541 503 541 480 541C457 541 434 541 411.2 541C388.3 541 365.7 541 342.8 541C320 541 297 541 274.2 541C251.3 541 228.7 541 205.8 541C183 541 160 541 137.2 541C114.3 541 91.7 541 68.8 541C46 541 23 541 11.5 541L0 541Z" fill="#cc2c68"></path><path d="M0 510L11.5 507.3C23 504.7 46 499.3 68.8 500.3C91.7 501.3 114.3 508.7 137.2 507.7C160 506.7 183 497.3 205.8 497.3C228.7 497.3 251.3 506.7 274.2 510.3C297 514 320 512 342.8 509.7C365.7 507.3 388.3 504.7 411.2 503.2C434 501.7 457 501.3 480 505C503 508.7 526 516.3 548.8 516.2C571.7 516 594.3 508 617.2 502.8C640 497.7 663 495.3 685.8 496C708.7 496.7 731.3 500.3 754.2 501C777 501.7 800 499.3 822.8 494.7C845.7 490 868.3 483 891.2 479.7C914 476.3 937 476.7 948.5 476.8L960 477L960 541L948.5 541C937 541 914 541 891.2 541C868.3 541 845.7 541 822.8 541C800 541 777 541 754.2 541C731.3 541 708.7 541 685.8 541C663 541 640 541 617.2 541C594.3 541 571.7 541 548.8 541C526 541 503 541 480 541C457 541 434 541 411.2 541C388.3 541 365.7 541 342.8 541C320 541 297 541 274.2 541C251.3 541 228.7 541 205.8 541C183 541 160 541 137.2 541C114.3 541 91.7 541 68.8 541C46 541 23 541 11.5 541L0 541Z" fill="#c62368"></path></svg>