<svg id="visual" viewBox="0 0 960 540" width="960" height="540" xmlns="http://www.w3.org/2000/svg" xmlns:xlink="http://www.w3.org/1999/xlink" version="1.1"><rect x="0" y="0" width="960" height="540" fill="#002233"></rect><path d="M0 436L6.3 437.2C12.7 438.3 25.3 440.7 38.2 437.2C51 433.7 64 424.3 76.8 435.7C89.7 447 102.3 479 115.2 479.5C128 480 141 449 153.8 449.8C166.7 450.7 179.3 483.3 192 500.7C204.7 518 217.3 520 230.2 507.5C243 495 256 468 268.8 458.5C281.7 449 294.3 457 307.2 456.8C320 456.7 333 448.3 345.8 447.2C358.7 446 371.3 452 384 451C396.7 450 409.3 442 422.2 452.5C435 463 448 492 460.8 500.7C473.7 509.3 486.3 497.7 499.2 494C512 490.3 525 494.7 537.8 487.3C550.7 480 563.3 461 576 459.3C588.7 457.7 601.3 473.3 614.2 466.5C627 459.7 640 430.3 652.8 416.7C665.7 403 678.3 405 691.2 404.7C704 404.3 717 401.7 729.8 399.7C742.7 397.7 755.3 396.3 768 406.7C780.7 417 793.3 439 806.2 446.5C819 454 832 447 844.8 447.2C857.7 447.3 870.3 454.7 883.2 451.3C896 448 909 434 921.8 440.7C934.7 447.3 947.3 474.7 953.7 488.3L960 502L960 541L953.7 541C947.3 541 934.7 541 921.8 541C909 541 896 541 883.2 541C870.3 541 857.7 541 844.8 541C832 541 819 541 806.2 541C793.3 541 780.7 541 768 541C755.3 541 742.7 541 729.8 541C717 541 704 541 691.2 541C678.3 541 665.7 541 652.8 541C640 541 627 541 614.2 541C601.3 541 588.7 541 576 541C563.3 541 550.7 541 537.8 541C525 541 512 541 499.2 541C486.3 541 473.7 541 460.8 541C448 541 435 541 422.2 541C409.3 541 396.7 541 384 541C371.3 541 358.7 541 345.8 541C333 541 320 541 307.2 541C294.3 541 281.7 541 268.8 541C256 541 243 541 230.2 541C217.3 541 204.7 541 192 541C179.3 541 166.7 541 153.8 541C141 541 128 541 115.2 541C102.3 541 89.7 541 76.8 541C64 541 51 541 38.2 541C25.3 541 12.7 541 6.3 541L0 541Z" fill="#0066FF" stroke-linecap="round" stroke-linejoin="miter"></path></svg>