<svg id="visual" viewBox="0 0 960 540" width="960" height="540" xmlns="http://www.w3.org/2000/svg" xmlns:xlink="http://www.w3.org/1999/xlink" version="1.1"><rect x="0" y="0" width="960" height="540" fill="#002233"></rect><path d="M0 102L6.3 100.8C12.7 99.7 25.3 97.3 38.2 100.8C51 104.3 64 113.7 76.8 102.3C89.7 91 102.3 59 115.2 58.5C128 58 141 89 153.8 88.2C166.7 87.3 179.3 54.7 192 37.3C204.7 20 217.3 18 230.2 30.5C243 43 256 70 268.8 79.5C281.7 89 294.3 81 307.2 81.2C320 81.3 333 89.7 345.8 90.8C358.7 92 371.3 86 384 87C396.7 88 409.3 96 422.2 85.5C435 75 448 46 460.8 37.3C473.7 28.7 486.3 40.3 499.2 44C512 47.7 525 43.3 537.8 50.7C550.7 58 563.3 77 576 78.7C588.7 80.3 601.3 64.7 614.2 71.5C627 78.3 640 107.7 652.8 121.3C665.7 135 678.3 133 691.2 133.3C704 133.7 717 136.3 729.8 138.3C742.7 140.3 755.3 141.7 768 131.3C780.7 121 793.3 99 806.2 91.5C819 84 832 91 844.8 90.8C857.7 90.7 870.3 83.3 883.2 86.7C896 90 909 104 921.8 97.3C934.7 90.7 947.3 63.3 953.7 49.7L960 36L960 0L953.7 0C947.3 0 934.7 0 921.8 0C909 0 896 0 883.2 0C870.3 0 857.7 0 844.8 0C832 0 819 0 806.2 0C793.3 0 780.7 0 768 0C755.3 0 742.7 0 729.8 0C717 0 704 0 691.2 0C678.3 0 665.7 0 652.8 0C640 0 627 0 614.2 0C601.3 0 588.7 0 576 0C563.3 0 550.7 0 537.8 0C525 0 512 0 499.2 0C486.3 0 473.7 0 460.8 0C448 0 435 0 422.2 0C409.3 0 396.7 0 384 0C371.3 0 358.7 0 345.8 0C333 0 320 0 307.2 0C294.3 0 281.7 0 268.8 0C256 0 243 0 230.2 0C217.3 0 204.7 0 192 0C179.3 0 166.7 0 153.8 0C141 0 128 0 115.2 0C102.3 0 89.7 0 76.8 0C64 0 51 0 38.2 0C25.3 0 12.7 0 6.3 0L0 0Z" fill="#0066FF" stroke-linecap="round" stroke-linejoin="miter"></path></svg>